<?xml version="1.0" encoding="iso-8859-1"?>
<!-- Generator: Adobe Illustrator 18.1.1, SVG Export Plug-In . SVG Version: 6.00 Build 0)  -->
<svg version="1.1" id="Capa_1" xmlns="http://www.w3.org/2000/svg" xmlns:xlink="http://www.w3.org/1999/xlink" x="0px" y="0px"
	 viewBox="0 0 17.089 17.089" style="enable-background:new 0 0 17.089 17.089;" xml:space="preserve">
<g>
	<g>
		<path style="fill:#030104;" d="M14.325,8.512l2.313-2.254c0.089-0.086,0.12-0.214,0.082-0.331s-0.139-0.202-0.26-0.22
			l-3.411-0.496l0.535-3.437c0.02-0.122-0.032-0.243-0.133-0.314c-0.1-0.07-0.231-0.077-0.34-0.019l-2.874,1.567L8.834,0.166
			c-0.109-0.221-0.47-0.221-0.579,0L6.781,3.152L3.686,1.586c-0.11-0.055-0.241-0.044-0.339,0.03
			C3.249,1.69,3.201,1.813,3.224,1.933L3.843,5.24L0.629,5.707c-0.121,0.018-0.222,0.103-0.26,0.22
			C0.331,6.044,0.363,6.172,0.451,6.258l2.364,2.305l-2.368,2.379c-0.086,0.087-0.116,0.215-0.076,0.332
			c0.04,0.115,0.142,0.199,0.263,0.216l3.296,0.427l-0.568,3.306c-0.021,0.121,0.029,0.243,0.129,0.315
			c0.1,0.072,0.231,0.082,0.339,0.024l3.011-1.582l1.503,2.933c0.056,0.107,0.167,0.176,0.288,0.176c0.001,0,0.003,0,0.005,0
			c0.123-0.002,0.234-0.073,0.287-0.185l1.375-2.897l2.959,1.556c0.108,0.058,0.24,0.048,0.34-0.024s0.149-0.194,0.129-0.315
			l-0.591-3.439l3.327-0.535c0.122-0.021,0.221-0.106,0.257-0.224c0.037-0.117,0.003-0.245-0.086-0.33L14.325,8.512z M12.204,10.873
			c-0.075,0.011-0.143,0.053-0.186,0.114c-0.046,0.062-0.063,0.139-0.05,0.212l0.469,2.737L10.086,12.7
			c-0.069-0.035-0.147-0.042-0.222-0.018c-0.072,0.023-0.133,0.077-0.166,0.146L8.611,15.12l-1.19-2.318
			c-0.035-0.068-0.094-0.119-0.167-0.142c-0.027-0.009-0.057-0.013-0.085-0.013c-0.044,0-0.09,0.011-0.131,0.032l-2.389,1.256
			L5.1,11.307c0.014-0.076-0.004-0.154-0.05-0.216c-0.046-0.063-0.115-0.103-0.192-0.112l-2.617-0.34l1.875-1.885
			c0.052-0.053,0.083-0.126,0.083-0.202c-0.001-0.075-0.032-0.147-0.086-0.2L2.242,6.529l2.546-0.37
			c0.076-0.01,0.144-0.052,0.19-0.115c0.046-0.061,0.064-0.14,0.049-0.216L4.535,3.199l2.46,1.247
			c0.068,0.034,0.146,0.04,0.218,0.016c0.072-0.024,0.131-0.076,0.164-0.143l1.167-2.364L9.652,4.2
			c0.035,0.069,0.096,0.122,0.169,0.145c0.073,0.023,0.153,0.016,0.221-0.021l2.279-1.243l-0.426,2.732
			c-0.011,0.075,0.008,0.151,0.053,0.211c0.044,0.062,0.111,0.102,0.188,0.113l2.71,0.394l-1.831,1.785
			c-0.055,0.053-0.087,0.128-0.087,0.205c0.001,0.077,0.033,0.15,0.089,0.204l1.824,1.724L12.204,10.873z"/>
		<path style="fill:#030104;" d="M12.461,7.298l-1.686-0.245c-0.045-0.007-0.088-0.032-0.115-0.07s-0.039-0.085-0.032-0.131
			l0.265-1.699L9.477,5.925C9.434,5.947,9.385,5.952,9.339,5.938C9.294,5.924,9.256,5.891,9.235,5.849l-0.69-1.396L7.82,5.922
			C7.798,5.964,7.762,5.997,7.716,6.011c-0.043,0.015-0.092,0.011-0.135-0.01L6.053,5.227l0.305,1.634
			C6.367,6.908,6.356,6.957,6.33,6.996C6.301,7.035,6.26,7.061,6.211,7.068l-1.582,0.23l1.162,1.133
			c0.034,0.033,0.054,0.078,0.054,0.125S5.826,8.649,5.794,8.682L4.627,9.853l1.626,0.211c0.048,0.006,0.091,0.031,0.12,0.07
			c0.028,0.038,0.041,0.087,0.032,0.134l-0.281,1.633l1.485-0.779c0.025-0.014,0.053-0.021,0.082-0.021
			c0.019,0,0.037,0.002,0.053,0.008c0.045,0.015,0.081,0.046,0.104,0.088l0.738,1.441l0.677-1.425
			c0.02-0.044,0.057-0.076,0.103-0.091c0.046-0.016,0.096-0.012,0.138,0.011l1.461,0.768L10.673,10.2
			c-0.007-0.045,0.003-0.093,0.032-0.131c0.025-0.039,0.067-0.064,0.114-0.072l1.639-0.263l-1.135-1.072
			c-0.034-0.033-0.054-0.079-0.054-0.126s0.02-0.094,0.053-0.128L12.461,7.298z"/>
	</g>
</g>
<g>
</g>
<g>
</g>
<g>
</g>
<g>
</g>
<g>
</g>
<g>
</g>
<g>
</g>
<g>
</g>
<g>
</g>
<g>
</g>
<g>
</g>
<g>
</g>
<g>
</g>
<g>
</g>
<g>
</g>
</svg>
