<?xml version="1.0" encoding="UTF-8" standalone="no"?>
<svg
   xmlns:dc="http://purl.org/dc/elements/1.1/"
   xmlns:cc="http://creativecommons.org/ns#"
   xmlns:rdf="http://www.w3.org/1999/02/22-rdf-syntax-ns#"
   xmlns:svg="http://www.w3.org/2000/svg"
   xmlns="http://www.w3.org/2000/svg"
   id="svg12"
   version="1.1"
   width="1.7082499mm"
   height="3.4404941mm"
   viewBox="0 0 1.7082499 3.4404941">
  <metadata
     id="metadata18">
    <rdf:RDF>
      <cc:Work
         rdf:about="">
        <dc:format>image/svg+xml</dc:format>
        <dc:type
           rdf:resource="http://purl.org/dc/dcmitype/StillImage" />
        <dc:title></dc:title>
      </cc:Work>
    </rdf:RDF>
  </metadata>
  <defs
     id="defs16" />
  <g
     id="g10"
     transform="translate(-0.06102885,-0.05536322)">
    <g
       id="g4"
       style="fill:currentColor"
       transform="matrix(0.26458333,0,0,0.26458333,-1.6583037,-0.3415171)">
      <path
         id="path2"
         clip-rule="evenodd"
         d="m 6.776,1.553 a 0.5,0.5 0 0 1 0.671,0.223 l 3,6 a 0.5,0.5 0 0 1 0,0.448 l -3,6 A 0.5,0.5 0 1 1 6.553,13.776 L 9.44,8 6.553,2.224 A 0.5,0.5 0 0 1 6.776,1.553 Z"
         fill-rule="evenodd" />
    </g>
    <g
       id="g8"
       transform="matrix(0.26458333,0,0,0.26458333,-1.0088417,-0.3415171)"
       style="fill:currentColor">
      <path
         id="path6"
         fill-rule="evenodd"
         d="m 6.776,1.553 a 0.5,0.5 0 0 1 0.671,0.223 l 3,6 a 0.5,0.5 0 0 1 0,0.448 l -3,6 A 0.5,0.5 0 1 1 6.553,13.776 L 9.44,8 6.553,2.224 A 0.5,0.5 0 0 1 6.776,1.553 Z"
         clip-rule="evenodd" />
    </g>
  </g>
</svg>
