<?xml version="1.0" encoding="UTF-8" standalone="no"?>
<svg
   width="238.60001pt"
   height="238.60001pt"
   viewBox="0 0 238.60001 238.60001"
   version="1.1"
   id="svg57"
   xmlns="http://www.w3.org/2000/svg"
   xmlns:svg="http://www.w3.org/2000/svg"
   xmlns:rdf="http://www.w3.org/1999/02/22-rdf-syntax-ns#"
   xmlns:cc="http://creativecommons.org/ns#"
   xmlns:dc="http://purl.org/dc/elements/1.1/">
  <metadata
     id="metadata2">
    <rdf:RDF>
      <cc:Work>
        <dc:type
           rdf:resource="http://purl.org/dc/dcmitype/StillImage" />
        <dc:date>2021-12-10T02:08:25.951787</dc:date>
        <dc:format>image/svg+xml</dc:format>
        <dc:creator>
          <cc:Agent>
            <dc:title>Matplotlib v3.5.0, https://matplotlib.org/</dc:title>
          </cc:Agent>
        </dc:creator>
      </cc:Work>
    </rdf:RDF>
  </metadata>
  <defs
     id="defs6">
    <style
       type="text/css"
       id="style4">*{stroke-linejoin: round; stroke-linecap: butt}</style>
  </defs>
  <g
     id="patch_2"
     style="fill:#000000;fill-opacity:0.5"
     transform="translate(-102.1,-98.86)">
    <path
       d="m 292.68,241.92 c 12.60245,0 24.69043,-2.5035 33.60171,-6.95914 C 335.19299,230.50522 340.2,224.46123 340.2,218.16 c 0,-6.30123 -5.00701,-12.34522 -13.91829,-16.80086 C 317.37043,196.9035 305.28245,194.4 292.68,194.4 c -12.60245,0 -24.69043,2.5035 -33.60171,6.95914 -8.91128,4.45564 -13.91829,10.49963 -13.91829,16.80086 0,6.30123 5.00701,12.34522 13.91829,16.80086 8.91128,4.45564 20.99926,6.95914 33.60171,6.95914 z"
       clip-path="url(#p4089e95c0b)"
       style="fill:#000000;fill-opacity:0.5;stroke:#000000;stroke-linejoin:miter"
       id="path11" />
  </g>
  <g
     id="patch_3"
     style="fill:#000000;fill-opacity:0.5"
     transform="translate(-102.1,-98.86)">
    <path
       d="m 295.01029,203.09676 c 10.91404,-6.30122 20.13079,-14.51331 25.62037,-22.82765 5.48957,-8.31433 6.80377,-16.05209 3.65316,-21.50911 -3.15062,-5.45702 -10.50881,-8.18777 -20.45402,-7.59083 -9.94521,0.59695 -21.66547,4.47284 -32.57951,10.77407 -10.91404,6.30122 -20.13079,14.51331 -25.62037,22.82765 -5.48957,8.31433 -6.80377,16.05209 -3.65316,21.50911 3.15062,5.45702 10.50881,8.18777 20.45402,7.59083 9.94521,-0.59695 21.66547,-4.47284 32.57951,-10.77407 z"
       clip-path="url(#p4089e95c0b)"
       style="fill:#000000;fill-opacity:0.5;stroke:#000000;stroke-linejoin:miter"
       id="path14" />
  </g>
  <g
     id="patch_4"
     style="fill:#000000;fill-opacity:0.5"
     transform="translate(-102.1,-98.86)">
    <path
       d="m 277.61676,168.30971 c 6.30123,-10.91404 10.17712,-22.6343 10.77407,-32.57951 0.59694,-9.94521 -2.13381,-17.3034 -7.59083,-20.45402 -5.45702,-3.15061 -13.19478,-1.83641 -21.50911,3.65316 -8.31434,5.48958 -16.52643,14.70633 -22.82765,25.62037 -6.30123,10.91404 -10.17712,22.6343 -10.77407,32.57951 -0.59694,9.94521 2.13381,17.3034 7.59083,20.45402 5.45702,3.15061 13.19478,1.83641 21.50911,-3.65316 8.31434,-5.48958 16.52643,-14.70633 22.82765,-25.62037 z"
       clip-path="url(#p4089e95c0b)"
       style="fill:#000000;fill-opacity:0.5;stroke:#000000;stroke-linejoin:miter"
       id="path17" />
  </g>
  <g
     id="patch_5"
     style="fill:#000000;fill-opacity:0.5"
     transform="translate(-102.1,-98.86)">
    <path
       d="m 245.16,146.88 c 0,-12.60245 -2.5035,-24.69043 -6.95914,-33.60171 C 233.74522,104.36701 227.70123,99.36 221.4,99.36 c -6.30123,0 -12.34522,5.00701 -16.80086,13.91829 -4.45564,8.91128 -6.95914,20.99926 -6.95914,33.60171 0,12.60245 2.5035,24.69043 6.95914,33.60171 4.45564,8.91128 10.49963,13.91829 16.80086,13.91829 6.30123,0 12.34522,-5.00701 16.80086,-13.91829 C 242.6565,171.57043 245.16,159.48245 245.16,146.88 Z"
       clip-path="url(#p4089e95c0b)"
       style="fill:#000000;fill-opacity:0.5;stroke:#000000;stroke-linejoin:miter"
       id="path20" />
  </g>
  <g
     id="patch_6"
     style="fill:#000000;fill-opacity:0.5"
     transform="translate(-102.1,-98.86)">
    <path
       d="m 206.33676,144.54971 c -6.30122,-10.91404 -14.51331,-20.13079 -22.82765,-25.62037 -8.31433,-5.48957 -16.05209,-6.80377 -21.50911,-3.65316 -5.45702,3.15062 -8.18777,10.50881 -7.59083,20.45402 0.59695,9.94521 4.47284,21.66547 10.77407,32.57951 6.30122,10.91404 14.51331,20.13079 22.82765,25.62037 8.31433,5.48957 16.05209,6.80377 21.50911,3.65316 5.45702,-3.15062 8.18777,-10.50881 7.59083,-20.45402 -0.59695,-9.94521 -4.47284,-21.66547 -10.77407,-32.57951 z"
       clip-path="url(#p4089e95c0b)"
       style="fill:#000000;fill-opacity:0.5;stroke:#000000;stroke-linejoin:miter"
       id="path23" />
  </g>
  <g
     id="patch_7"
     style="fill:#000000;fill-opacity:0.5"
     transform="translate(-102.1,-98.86)">
    <path
       d="m 171.54971,161.94324 c -10.91404,-6.30123 -22.6343,-10.17712 -32.57951,-10.77407 -9.94521,-0.59694 -17.30341,2.13381 -20.45402,7.59083 -3.15061,5.45702 -1.83641,13.19478 3.65316,21.50911 5.48958,8.31434 14.70633,16.52643 25.62037,22.82765 10.91404,6.30123 22.63429,10.17712 32.57951,10.77407 9.94521,0.59694 17.3034,-2.13381 20.45402,-7.59083 3.15061,-5.45702 1.83641,-13.19478 -3.65316,-21.50911 -5.48958,-8.31434 -14.70633,-16.52643 -25.62037,-22.82765 z"
       clip-path="url(#p4089e95c0b)"
       style="fill:#000000;fill-opacity:0.5;stroke:#000000;stroke-linejoin:miter"
       id="path26" />
  </g>
  <g
     id="patch_8"
     style="fill:#000000;fill-opacity:0.5"
     transform="translate(-102.1,-98.86)">
    <path
       d="m 150.12,194.4 c -12.60245,0 -24.69044,2.5035 -33.60171,6.95914 C 107.60701,205.81478 102.6,211.85877 102.6,218.16 c 0,6.30123 5.00701,12.34522 13.91829,16.80086 8.91127,4.45564 20.99926,6.95914 33.60171,6.95914 12.60245,0 24.69043,-2.5035 33.60171,-6.95914 8.91128,-4.45564 13.91829,-10.49963 13.91829,-16.80086 0,-6.30123 -5.00701,-12.34522 -13.91829,-16.80086 C 174.81043,196.9035 162.72245,194.4 150.12,194.4 Z"
       clip-path="url(#p4089e95c0b)"
       style="fill:#000000;fill-opacity:0.5;stroke:#000000;stroke-linejoin:miter"
       id="path29" />
  </g>
  <g
     id="patch_9"
     style="fill:#000000;fill-opacity:0.5"
     transform="translate(-102.1,-98.86)">
    <path
       d="m 147.78971,233.22324 c -10.91404,6.30122 -20.13079,14.51331 -25.62037,22.82765 -5.48957,8.31433 -6.80377,16.05209 -3.65316,21.50911 3.15061,5.45702 10.50881,8.18777 20.45402,7.59083 9.94521,-0.59695 21.66547,-4.47284 32.57951,-10.77407 10.91404,-6.30122 20.13079,-14.51331 25.62037,-22.82765 5.48957,-8.31433 6.80377,-16.05209 3.65316,-21.50911 -3.15062,-5.45702 -10.50881,-8.18777 -20.45402,-7.59083 -9.94522,0.59695 -21.66547,4.47284 -32.57951,10.77407 z"
       clip-path="url(#p4089e95c0b)"
       style="fill:#000000;fill-opacity:0.5;stroke:#000000;stroke-linejoin:miter"
       id="path32" />
  </g>
  <g
     id="patch_10"
     style="fill:#000000;fill-opacity:0.5"
     transform="translate(-102.1,-98.86)">
    <path
       d="m 165.18324,268.01029 c -6.30123,10.91404 -10.17712,22.6343 -10.77407,32.57951 -0.59694,9.94521 2.13381,17.30341 7.59083,20.45402 5.45702,3.15061 13.19478,1.83641 21.50911,-3.65316 8.31434,-5.48958 16.52643,-14.70633 22.82765,-25.62037 6.30123,-10.91404 10.17712,-22.6343 10.77407,-32.57951 0.59694,-9.94521 -2.13381,-17.3034 -7.59083,-20.45402 -5.45702,-3.15061 -13.19478,-1.83641 -21.50911,3.65316 -8.31434,5.48958 -16.52643,14.70633 -22.82765,25.62037 z"
       clip-path="url(#p4089e95c0b)"
       style="fill:#000000;fill-opacity:0.5;stroke:#000000;stroke-linejoin:miter"
       id="path35" />
  </g>
  <g
     id="patch_11"
     style="fill:#000000;fill-opacity:0.5"
     transform="translate(-102.1,-98.86)">
    <path
       d="m 197.64,289.44 c 0,12.60245 2.5035,24.69043 6.95914,33.60171 4.45564,8.91128 10.49963,13.91829 16.80086,13.91829 6.30123,0 12.34522,-5.00701 16.80086,-13.91829 4.45564,-8.91128 6.95914,-20.99926 6.95914,-33.60171 0,-12.60245 -2.5035,-24.69043 -6.95914,-33.60171 C 233.74522,246.92701 227.70123,241.92 221.4,241.92 c -6.30123,0 -12.34522,5.00701 -16.80086,13.91829 C 200.1435,264.74957 197.64,276.83755 197.64,289.44 Z"
       clip-path="url(#p4089e95c0b)"
       style="fill:#000000;fill-opacity:0.5;stroke:#000000;stroke-linejoin:miter"
       id="path38" />
  </g>
  <g
     id="patch_12"
     style="fill:#000000;fill-opacity:0.5"
     transform="translate(-102.1,-98.86)">
    <path
       d="m 236.46324,291.77029 c 6.30122,10.91404 14.51331,20.13079 22.82765,25.62037 8.31433,5.48957 16.05209,6.80377 21.50911,3.65316 5.45702,-3.15061 8.18777,-10.50881 7.59083,-20.45402 -0.59695,-9.94521 -4.47284,-21.66547 -10.77407,-32.57951 -6.30122,-10.91404 -14.51331,-20.13079 -22.82765,-25.62037 -8.31433,-5.48957 -16.05209,-6.80377 -21.50911,-3.65316 -5.45702,3.15062 -8.18777,10.50881 -7.59083,20.45402 0.59695,9.94521 4.47284,21.66547 10.77407,32.57951 z"
       clip-path="url(#p4089e95c0b)"
       style="fill:#000000;fill-opacity:0.5;stroke:#000000;stroke-linejoin:miter"
       id="path41" />
  </g>
  <g
     id="patch_13"
     style="fill:#000000;fill-opacity:0.5"
     transform="translate(-102.1,-98.86)">
    <path
       d="m 271.25029,274.37676 c 10.91404,6.30123 22.6343,10.17712 32.57951,10.77407 9.94521,0.59694 17.3034,-2.13381 20.45402,-7.59083 3.15061,-5.45702 1.83641,-13.19478 -3.65316,-21.50911 -5.48958,-8.31434 -14.70633,-16.52643 -25.62037,-22.82765 -10.91404,-6.30123 -22.6343,-10.17712 -32.57951,-10.77407 -9.94521,-0.59694 -17.3034,2.13381 -20.45402,7.59083 -3.15061,5.45702 -1.83641,13.19478 3.65316,21.50911 5.48958,8.31434 14.70633,16.52643 25.62037,22.82765 z"
       clip-path="url(#p4089e95c0b)"
       style="fill:#000000;fill-opacity:0.5;stroke:#000000;stroke-linejoin:miter"
       id="path44" />
  </g>
  <g
     id="flower-core"
     transform="translate(-102.1,-98.86)">
    <path
       d="m 221.4,241.92 c 6.30123,0 12.34522,-2.5035 16.80086,-6.95914 4.45564,-4.45564 6.95914,-10.49963 6.95914,-16.80086 0,-6.30123 -2.5035,-12.34522 -6.95914,-16.80086 C 233.74522,196.9035 227.70123,194.4 221.4,194.4 c -6.30123,0 -12.34522,2.5035 -16.80086,6.95914 -4.45564,4.45564 -6.95914,10.49963 -6.95914,16.80086 0,6.30123 2.5035,12.34522 6.95914,16.80086 4.45564,4.45564 10.49963,6.95914 16.80086,6.95914 z"
       clip-path="url(#p4089e95c0b)"
       style="stroke:#000000;stroke-linejoin:miter"
       id="path47" />
  </g>
  <defs
     id="defs55">
    <clipPath
       id="p4089e95c0b">
      <rect
         x="55.080002"
         y="51.84"
         width="332.64001"
         height="332.64001"
         id="rect52" />
    </clipPath>
  </defs>
</svg>
