<?xml version="1.0" encoding="UTF-8"?>
<svg enable-background="new 0 0 506.424 506.424" version="1.1" viewBox="0 0 506.42 506.42" xmlns="http://www.w3.org/2000/svg" xmlns:cc="http://creativecommons.org/ns#" xmlns:dc="http://purl.org/dc/elements/1.1/" xmlns:rdf="http://www.w3.org/1999/02/22-rdf-syntax-ns#">
 <metadata>
  <rdf:RDF>
   <cc:Work rdf:about="">
    <dc:format>image/svg+xml</dc:format>
    <dc:type rdf:resource="http://purl.org/dc/dcmitype/StillImage"/>
    <dc:title/>
   </cc:Work>
  </rdf:RDF>
 </metadata>
 <g transform="matrix(0 -.49238 .49238 0 0 249.35)">
  <path d="m476.43 137.06c-0.098 8.815-1.332 17.371-3.558 25.531l-130.29-128.71c8.534-2.426 17.515-3.777 26.788-3.88l-0.332-29.998c-72.463 0.804-131.21 60.289-130.95 132.57l0.116 105.63-105.59-0.116c-0.159-1e-3 -0.308-1e-3 -0.467-1e-3 -72.098 0-131.33 58.652-132.14 130.95l29.998 0.332c0.098-8.826 1.323-17.389 3.533-25.553l130.29 128.71c-8.53 2.441-17.502 3.803-26.763 3.905l0.333 29.998c72.122-0.8 130.87-60.253 130.96-132.56l-0.121-105.63 105.66 0.119c72.276-0.086 131.73-58.832 132.53-130.95zm-208.23 101.17-0.065-59.329 60.127 59.397zm-136.02 29.849c0.119 0 0.242 1e-3 0.361 1e-3l2.902 3e-3 102.91 101.66 5e-3 4.117c-0.015 12.479-2.293 24.461-6.436 35.559l-136.21-134.56c11.343-4.377 23.641-6.782 36.469-6.782zm60.637 190.91-146.16-144.38c6.023-9.213 13.488-17.396 22.061-24.237l148.03 146.23c-6.734 8.671-14.822 16.239-23.932 22.388zm45.487-131.46-60.125-59.396 60.057 0.068zm132.7-89.178-102.91-101.66-5e-3 -4.186c-0.044-12.495 2.198-24.492 6.323-35.6l136.22 134.57c-11.422 4.428-23.809 6.869-36.725 6.885zm66.608-22.397-148.04-146.24c6.735-8.657 14.837-16.212 23.97-22.347l146.16 144.39c-6.037 9.189-13.513 17.361-22.095 24.199z"/>
 </g>
 <g transform="matrix(.49238 0 0 .49238 257.07 0)">
  <path d="m476.43 137.06c-0.098 8.815-1.332 17.371-3.558 25.531l-130.29-128.71c8.534-2.426 17.515-3.777 26.788-3.88l-0.332-29.998c-72.463 0.804-131.21 60.289-130.95 132.57l0.116 105.63-105.59-0.116c-0.159-1e-3 -0.308-1e-3 -0.467-1e-3 -72.098 0-131.33 58.652-132.14 130.95l29.998 0.332c0.098-8.826 1.323-17.389 3.533-25.553l130.29 128.71c-8.53 2.441-17.502 3.803-26.763 3.905l0.333 29.998c72.122-0.8 130.87-60.253 130.96-132.56l-0.121-105.63 105.66 0.119c72.276-0.086 131.73-58.832 132.53-130.95zm-208.23 101.17-0.065-59.329 60.127 59.397zm-136.02 29.849c0.119 0 0.242 1e-3 0.361 1e-3l2.902 3e-3 102.91 101.66 5e-3 4.117c-0.015 12.479-2.293 24.461-6.436 35.559l-136.21-134.56c11.343-4.377 23.641-6.782 36.469-6.782zm60.637 190.91-146.16-144.38c6.023-9.213 13.488-17.396 22.061-24.237l148.03 146.23c-6.734 8.671-14.822 16.239-23.932 22.388zm45.487-131.46-60.125-59.396 60.057 0.068zm132.7-89.178-102.91-101.66-5e-3 -4.186c-0.044-12.495 2.198-24.492 6.323-35.6l136.22 134.57c-11.422 4.428-23.809 6.869-36.725 6.885zm66.608-22.397-148.04-146.24c6.735-8.657 14.837-16.212 23.97-22.347l146.16 144.39c-6.037 9.189-13.513 17.361-22.095 24.199z"/>
 </g>
 <g transform="matrix(.49238 0 0 .49238 0 257.07)">
  <path d="m476.43 137.06c-0.098 8.815-1.332 17.371-3.558 25.531l-130.29-128.71c8.534-2.426 17.515-3.777 26.788-3.88l-0.332-29.998c-72.463 0.804-131.21 60.289-130.95 132.57l0.116 105.63-105.59-0.116c-0.159-1e-3 -0.308-1e-3 -0.467-1e-3 -72.098 0-131.33 58.652-132.14 130.95l29.998 0.332c0.098-8.826 1.323-17.389 3.533-25.553l130.29 128.71c-8.53 2.441-17.502 3.803-26.763 3.905l0.333 29.998c72.122-0.8 130.87-60.253 130.96-132.56l-0.121-105.63 105.66 0.119c72.276-0.086 131.73-58.832 132.53-130.95zm-208.23 101.17-0.065-59.329 60.127 59.397zm-136.02 29.849c0.119 0 0.242 1e-3 0.361 1e-3l2.902 3e-3 102.91 101.66 5e-3 4.117c-0.015 12.479-2.293 24.461-6.436 35.559l-136.21-134.56c11.343-4.377 23.641-6.782 36.469-6.782zm60.637 190.91-146.16-144.38c6.023-9.213 13.488-17.396 22.061-24.237l148.03 146.23c-6.734 8.671-14.822 16.239-23.932 22.388zm45.487-131.46-60.125-59.396 60.057 0.068zm132.7-89.178-102.91-101.66-5e-3 -4.186c-0.044-12.495 2.198-24.492 6.323-35.6l136.22 134.57c-11.422 4.428-23.809 6.869-36.725 6.885zm66.608-22.397-148.04-146.24c6.735-8.657 14.837-16.212 23.97-22.347l146.16 144.39c-6.037 9.189-13.513 17.361-22.095 24.199z"/>
 </g>
 <g transform="matrix(0 -.49238 .49238 0 257.07 506.42)">
  <path d="m476.43 137.06c-0.098 8.815-1.332 17.371-3.558 25.531l-130.29-128.71c8.534-2.426 17.515-3.777 26.788-3.88l-0.332-29.998c-72.463 0.804-131.21 60.289-130.95 132.57l0.116 105.63-105.59-0.116c-0.159-1e-3 -0.308-1e-3 -0.467-1e-3 -72.098 0-131.33 58.652-132.14 130.95l29.998 0.332c0.098-8.826 1.323-17.389 3.533-25.553l130.29 128.71c-8.53 2.441-17.502 3.803-26.763 3.905l0.333 29.998c72.122-0.8 130.87-60.253 130.96-132.56l-0.121-105.63 105.66 0.119c72.276-0.086 131.73-58.832 132.53-130.95zm-208.23 101.17-0.065-59.329 60.127 59.397zm-136.02 29.849c0.119 0 0.242 1e-3 0.361 1e-3l2.902 3e-3 102.91 101.66 5e-3 4.117c-0.015 12.479-2.293 24.461-6.436 35.559l-136.21-134.56c11.343-4.377 23.641-6.782 36.469-6.782zm60.637 190.91-146.16-144.38c6.023-9.213 13.488-17.396 22.061-24.237l148.03 146.23c-6.734 8.671-14.822 16.239-23.932 22.388zm45.487-131.46-60.125-59.396 60.057 0.068zm132.7-89.178-102.91-101.66-5e-3 -4.186c-0.044-12.495 2.198-24.492 6.323-35.6l136.22 134.57c-11.422 4.428-23.809 6.869-36.725 6.885zm66.608-22.397-148.04-146.24c6.735-8.657 14.837-16.212 23.97-22.347l146.16 144.39c-6.037 9.189-13.513 17.361-22.095 24.199z"/>
 </g>
</svg>
