<svg id="Capa_1" enable-background="new 0 0 506.424 506.424" viewBox="0 0 506.424 506.424" xmlns="http://www.w3.org/2000/svg"><g><path d="m476.426 137.061c-.098 8.815-1.332 17.371-3.558 25.531l-130.293-128.714c8.534-2.426 17.515-3.777 26.788-3.88l-.332-29.998c-72.463.804-131.208 60.289-130.953 132.566l.116 105.627-105.592-.116c-.159-.001-.308-.001-.467-.001-72.098 0-131.334 58.652-132.135 130.954l29.998.332c.098-8.826 1.323-17.389 3.533-25.553l130.292 128.711c-8.53 2.441-17.502 3.803-26.763 3.905l.333 29.998c72.122-.8 130.869-60.253 130.956-132.565l-.121-105.629 105.665.119c72.276-.086 131.729-58.832 132.53-130.954zm-208.232 101.166-.065-59.329 60.127 59.397zm-136.022 29.849c.119 0 .242.001.361.001l2.902.003 102.909 101.661.005 4.117c-.015 12.479-2.293 24.461-6.436 35.559l-136.21-134.559c11.343-4.377 23.641-6.782 36.469-6.782zm60.637 190.908-146.159-144.384c6.023-9.213 13.488-17.396 22.061-24.237l148.03 146.233c-6.734 8.671-14.822 16.239-23.932 22.388zm45.487-131.461-60.125-59.396 60.057.068zm132.697-89.178-102.91-101.662-.005-4.186c-.044-12.495 2.198-24.492 6.323-35.6l136.217 134.566c-11.422 4.428-23.809 6.869-36.725 6.885zm66.608-22.397-148.036-146.241c6.735-8.657 14.837-16.212 23.97-22.347l146.161 144.389c-6.037 9.189-13.513 17.361-22.095 24.199z"/></g></svg>