<?xml version="1.0" encoding="UTF-8" standalone="no"?>
<!-- Generator: Adobe Illustrator 18.1.1, SVG Export Plug-In . SVG Version: 6.00 Build 0)  -->

<svg
   xmlns:dc="http://purl.org/dc/elements/1.1/"
   xmlns:cc="http://creativecommons.org/ns#"
   xmlns:rdf="http://www.w3.org/1999/02/22-rdf-syntax-ns#"
   xmlns:svg="http://www.w3.org/2000/svg"
   xmlns="http://www.w3.org/2000/svg"
   xmlns:sodipodi="http://sodipodi.sourceforge.net/DTD/sodipodi-0.dtd"
   xmlns:inkscape="http://www.inkscape.org/namespaces/inkscape"
   version="1.1"
   id="Layer_1"
   x="0px"
   y="0px"
   viewBox="0 0 512 512"
   enable-background="new 0 0 512 512"
   xml:space="preserve"
   sodipodi:docname="md-bugs.svg"
   inkscape:version="0.92.4 (unknown)"><metadata
   id="metadata9"><rdf:RDF><cc:Work
       rdf:about=""><dc:format>image/svg+xml</dc:format><dc:type
         rdf:resource="http://purl.org/dc/dcmitype/StillImage" /></cc:Work></rdf:RDF></metadata><defs
   id="defs7" /><sodipodi:namedview
   pagecolor="#ffffff"
   bordercolor="#666666"
   borderopacity="1"
   objecttolerance="10"
   gridtolerance="10"
   guidetolerance="10"
   inkscape:pageopacity="0"
   inkscape:pageshadow="2"
   inkscape:window-width="2560"
   inkscape:window-height="1383"
   id="namedview5"
   showgrid="false"
   showguides="true"
   inkscape:guide-bbox="true"
   inkscape:zoom="0.921875"
   inkscape:cx="292.12927"
   inkscape:cy="405.76504"
   inkscape:window-x="0"
   inkscape:window-y="27"
   inkscape:window-maximized="1"
   inkscape:current-layer="Layer_1" />

<g
   id="g4579"
   transform="translate(-1.75e-6,-26.192012)"><path
     style="stroke-width:1"
     inkscape:connector-curvature="0"
     id="path2"
     d="m 359.27136,131.66324 h -36.25255 c -5.80901,-10.0582 -13.8233,-18.71794 -23.50499,-25.27997 l 21.03078,-21.084565 -18.18006,-18.18006 -28.02312,28.02311 c -5.97037,-1.45225 -11.99453,-2.20527 -18.34142,-2.20527 -6.34689,0 -12.37105,0.75302 -18.18006,2.20527 l -28.18448,-28.02311 -18.18006,18.18006 20.92321,21.030775 c -9.57412,6.56204 -17.53462,15.22177 -23.34363,25.27997 h -36.30634 v 25.81785 h 27.00116 c -0.64545,4.24919 -1.18332,8.49837 -1.18332,12.90892 v 12.90892 h -25.81784 v 25.81784 h 25.81784 v 12.90891 c 0,4.41055 0.53787,8.65974 1.18332,12.90892 h -27.00116 v 25.81784 h 36.25255 c 13.44679,23.12849 38.35025,38.72677 67.01881,38.72677 28.66856,0 53.57202,-15.59828 67.01881,-38.72677 h 36.25255 V 234.88081 H 332.2702 c 0.64545,-4.24918 1.18332,-8.49837 1.18332,-12.90892 v -12.90891 h 25.81784 v -25.81784 h -25.81784 v -12.90892 c 0,-4.41055 -0.53787,-8.65973 -1.18332,-12.90892 h 27.00116 z" /><path
     style="stroke-width:1"
     inkscape:connector-curvature="0"
     id="path2-7"
     d="m 187.59111,282.24607 -31.39563,18.12627 c -10.05985,-5.80615 -21.3303,-9.29856 -32.99591,-10.1406 l 7.67091,-28.77516 -24.83443,-6.65437 -10.257179,38.28029 c -5.89662,1.7275 -11.49021,4.08744 -16.986775,7.26089 -5.496568,3.17344 -10.337133,6.83766 -14.641759,10.99985 l -38.420027,-10.17649 -6.654364,24.83443 28.635422,7.75158 c -5.010411,10.46995 -7.574542,21.94975 -7.576192,33.56491 L 8.6929635,385.47084 21.601883,407.82975 44.985574,394.32917 c 1.565619,4.00263 3.2244,7.95146 5.429675,11.77111 l 6.45446,11.17945 -22.358906,12.90892 12.90892,22.35891 22.358906,-12.90892 6.45446,11.17945 c 2.205275,3.81965 4.795679,7.23062 7.479245,10.58779 l -23.383691,13.50058 12.90892,22.35891 31.395637,-18.12628 c 23.20951,13.30647 52.57567,14.36325 77.40338,0.029 24.8277,-14.33428 38.59559,-40.29452 38.6766,-67.04777 l 31.39563,-18.12628 -12.90892,-22.3589 -23.38369,13.50058 c -1.56561,-4.00263 -3.2244,-7.95147 -5.42967,-11.77112 l -6.45446,-11.17945 22.3589,-12.90892 -12.90892,-22.35891 -22.3589,12.90892 -6.45446,-11.17945 c -2.20528,-3.81965 -4.79568,-7.23061 -7.47925,-10.58779 l 23.38369,-13.50058 z" /><path
     style="stroke-width:1"
     inkscape:connector-curvature="0"
     id="path2-5"
     d="m 503.30704,385.51747 -31.39563,-18.12628 c -0.002,-11.61516 -2.61236,-23.12186 -7.71594,-33.64559 l 28.75548,-7.74438 -6.65437,-24.83443 -38.28028,10.25717 c -4.44437,-4.24287 -9.28494,-7.90709 -14.78151,-11.08053 -5.49656,-3.17345 -11.09015,-5.53339 -16.84702,-7.18021 l -10.39692,-38.36097 -24.83443,6.65437 7.60464,28.67479 c -11.57245,0.89584 -22.79631,4.41513 -32.85616,10.22128 l -31.44221,-18.15317 -12.90892,22.35891 23.38369,13.50058 c -2.68357,3.35718 -5.27397,6.76814 -7.47925,10.58779 l -6.45446,11.17945 -22.3589,-12.90892 -12.90892,22.35891 22.3589,12.90892 -6.45446,11.17945 c -2.20527,3.81965 -3.86406,7.76849 -5.42967,11.77111 l -23.38369,-13.50058 -12.90892,22.35891 31.39563,18.12627 c 0.081,26.75326 13.8489,52.7135 38.6766,67.04778 24.82771,14.33428 54.19388,13.2775 77.40338,-0.029 l 31.39563,18.12628 12.90892,-22.35891 -23.38369,-13.50058 c 2.68357,-3.35717 5.27397,-6.76814 7.47925,-10.58779 l 6.45446,-11.17945 22.3589,12.90892 12.90892,-22.35891 -22.3589,-12.90892 6.45446,-11.17945 c 2.20527,-3.81965 3.86405,-7.76848 5.42967,-11.77111 l 23.38369,13.50058 z" /></g></svg>