<?xml version="1.0" encoding="utf-8"?>
<!-- Generator: Adobe Illustrator 25.4.1, SVG Export Plug-In . SVG Version: 6.00 Build 0)  -->
<svg version="1.1" id="Ebene_1" xmlns="http://www.w3.org/2000/svg" xmlns:xlink="http://www.w3.org/1999/xlink" x="0px" y="0px"
	 viewBox="0 0 1200 1000" style="enable-background:new 0 0 1200 1000;" xml:space="preserve">
<style type="text/css">
	.st0{opacity:0.6;fill:#3AA07A;enable-background:new    ;}
	.st1{opacity:0.6;fill:#3593B7;enable-background:new    ;}
	.st2{opacity:0.6;fill:#5F10A0;enable-background:new    ;}
	.st3{fill:none;stroke:url(#SVGID_1_);stroke-width:20;stroke-linecap:round;stroke-miterlimit:10;}
	
		.st4{fill:none;stroke:url(#SVGID_00000020373787327793629260000006437110636700212106_);stroke-width:20;stroke-linecap:round;stroke-miterlimit:10;}
	.st5{fill:#311E5C;}
</style>
<path class="st0" d="M345.1,188.4c-92.9,0.1-168.1,75.5-168,168.4s75.5,168.1,168.4,168s168.1-75.5,168-168.4
	S438.1,188.4,345.1,188.4z M345.4,427.9c-39.3,0-71.3-31.8-71.3-71.1s31.8-71.3,71.1-71.3c39.3,0,71.3,31.8,71.3,71.1
	C416.6,395.9,384.8,427.9,345.4,427.9z"/>
<path class="st1" d="M753.3,571.3L753,356.2c-0.1-92.9-75.5-168.1-168.4-168s-168.1,75.5-168,168.4c0.1,92.9,75.5,168.1,168.4,168
	c25.5,0,49.6-5.8,71.2-15.9l0.1,62.7h0c0,39.4-31.8,71.3-71.2,71.3c-33,0-60.8-22.3-68.9-52.8c-2.9-10.8-12.7-18.4-23.9-18.3
	l-75.6,0.1c0.1,92.9,75.5,168.2,168.4,168S753.4,664.2,753.3,571.3L753.3,571.3L753.3,571.3z M584.9,427.6
	c-39.3,0-71.3-31.8-71.3-71.1s31.8-71.3,71.1-71.3c39.3,0,71.3,31.8,71.3,71.1C656.1,395.6,624.2,427.6,584.9,427.6z"/>
<path class="st2" d="M833.1,188.1c-28.8-1.5-56,4.3-80.2,15.7l-0.2-162.2c0-20.3-16.5-36.8-36.8-36.8L655.7,5l0.4,348.6
	c0.1,93.7,75.6,171.4,169.3,170.8c94.9-0.6,171.1-79.7,167-175.6C988.7,262.7,919.2,192.5,833.1,188.1z M829,427.2
	c-41.4,2.6-75.8-30.2-75.8-71l0,0v0c0-31.2,20-59.5,50-68.2c49.1-14.2,93.8,23,92.4,70.2C894.5,394.6,865.3,424.9,829,427.2z"/>
<linearGradient id="SVGID_1_" gradientUnits="userSpaceOnUse" x1="154.8834" y1="640.0624" x2="1021.6829" y2="640.0624" gradientTransform="matrix(1 -1.147093e-03 -1.147093e-03 -1 -2.5552 997.1581)">
	<stop  offset="0.1701" style="stop-color:#3AA07A"/>
	<stop  offset="0.2782" style="stop-color:#399C8C"/>
	<stop  offset="0.4816" style="stop-color:#3593B7"/>
	<stop  offset="0.6877" style="stop-color:#513BA8"/>
	<stop  offset="0.7858" style="stop-color:#5F10A0"/>
</linearGradient>
<path class="st3" d="M1008.3,291.9L944.4,356l-60.9,61c-32.5,32.5-85.2,32.6-117.7,0.1l-61-60.9l61,60.9l-61-60.9l-61-60.9
	c-30.8-30.7-79.5-32.3-112.2-4.9c0,0-0.1,0-0.1,0.1c-1.8,1.5-3.7,3.2-5.4,4.9l-60.6,60.8l-0.2,0.3L401,420.9
	c-0.5,0.5-1.1,1.1-1.6,1.6l0,0l66.4-66l-0.3,0.3l-60.6,60.7c-1.8,1.8-3.6,3.5-5.5,5l0,0c-32.7,27.5-81.5,25.8-112.2-4.9l-61-60.9
	l-64.4-64.2c-0.1-0.1-0.1-0.1-0.2-0.2"/>
<linearGradient id="SVGID_00000156584547619991584390000012074871911101047987_" gradientUnits="userSpaceOnUse" x1="154.9055" y1="640.0876" x2="1021.686" y2="640.0876" gradientTransform="matrix(1 -1.147093e-03 -1.147093e-03 -1 -2.5552 997.1581)">
	<stop  offset="0.1701" style="stop-color:#3AA07A"/>
	<stop  offset="0.2782" style="stop-color:#399C8C"/>
	<stop  offset="0.4816" style="stop-color:#3593B7"/>
	<stop  offset="0.6877" style="stop-color:#513BA8"/>
	<stop  offset="0.7858" style="stop-color:#5F10A0"/>
</linearGradient>
<path style="fill:none;stroke:url(#SVGID_00000156584547619991584390000012074871911101047987_);stroke-width:20;stroke-linecap:round;stroke-miterlimit:10;" d="
	M1008.5,419.9L944.4,356l-61-60.9c-32.5-32.5-85.2-32.4-117.7,0.1l-60.8,61l60.9-61l-60.8,61l-60.9,61
	c-30.7,30.8-79.5,32.5-112.2,5.1l0,0c-1.9-1.5-3.7-3.2-5.5-5l-60.8-60.6l-0.2-0.2l-64.4-64.3c-0.5-0.5-1-1-1.5-1.5
	c0,0-0.1-0.1-0.1-0.1l66.5,65.9l-0.3-0.3l-60.8-60.6c-1.8-1.7-3.5-3.4-5.4-4.9c0,0-0.1-0.1-0.1-0.1c-32.7-27.3-81.5-25.6-112.2,5.2
	l-60.9,61l-64.2,64.4c-0.1,0.1-0.1,0.1-0.2,0.2"/>
<g>
	<path class="st5" d="M90.1,962.5c-7.4,7.1-17.9,10.8-28.7,10.8c-10.8,0-21.3-3.7-28.7-10.8c-7.7-7.4-11.4-17.5-11.4-27.1
		c0-9.7,3.7-19.9,11.4-27.2c7.4-7.1,17.9-10.8,28.7-10.8c10.8,0,21.3,3.7,28.7,10.8c7.7,7.3,11.4,17.5,11.4,27.2
		C101.5,945,97.8,955.1,90.1,962.5z M46.7,921.4c-3.9,3.8-5.8,9.2-5.8,14.3c0,6.4,3.1,10.9,5.8,13.5c3.5,3.4,8.4,5.8,14.7,5.8
		c6.4,0,11.2-2.3,14.6-5.7c3.4-3.4,5.9-8.4,5.9-14c0-5.7-2.5-10.7-5.9-14c-4-3.8-9.6-5.8-14.6-5.8C56.2,915.6,50.6,917.5,46.7,921.4
		z"/>
	<path class="st5" d="M130.7,996.6h-17.4v-73.7h17.4v5.3c3.1-3.8,7.7-7,14.9-7c7.5,0,13.4,3.2,17.3,7.1c4,4,7.4,10.5,7.4,18.9
		c0,8.2-3.2,14.7-7.8,19.3c-5.4,5.3-11.8,6.8-16.7,6.8c-3.2,0-9.7-0.7-15.1-6.3V996.6z M133.5,939.4c-2.2,2.2-3.4,5.3-3.4,8.1
		c0,2.8,1.5,5.9,3.4,7.7c2.1,2.1,4.9,3.3,7.8,3.3c3.1,0,5.8-1.2,7.7-3.3c1.9-1.9,3.4-4.8,3.4-7.7c0-2.7-1.2-5.9-3.4-8.1
		c-2-2.1-4.7-3.3-7.7-3.3C138.4,936.1,135.6,937.3,133.5,939.4z"/>
	<path class="st5" d="M233.3,950.5H197c0,2.6,1,6.1,3.1,8.2c1.1,1.1,3.3,2.4,7.2,2.4c0.4,0,3.5-0.1,5.7-1.3c1.1-0.7,2.3-1.7,3.1-3.3
		h16.7c-0.8,2.7-2.3,6.5-5.9,10c-3.6,3.5-9.3,6.8-19.8,6.8c-6.4,0-14.2-1.4-20.2-7.4c-3.2-3.2-7.2-9.2-7.2-18.4
		c0-8.2,3.1-14.7,7.3-18.9c4-3.9,10.4-7.1,19.9-7.1c5.7,0,13,1.2,18.7,6.6c6.9,6.5,7.7,15,7.7,20.5V950.5z M217.3,940.5
		c-0.4-1.9-1.5-3.9-2.8-5.2c-2.3-2.3-5.4-2.6-7.2-2.6c-2.9,0-5.2,0.8-7.1,2.6c-1.2,1.3-2.3,3.1-2.6,5.2H217.3z"/>
	<path class="st5" d="M244.7,922.9h17.4v6.1c4.8-6.3,11.2-7.2,15.5-7.2c5,0,10.4,1.2,14.4,5.2c4.1,4.1,4.6,8.3,4.6,13.6v31h-17.4
		V947c0-2.8,0.1-7.1-2.2-9.5c-1.6-1.7-3.8-2.1-5.6-2.1c-2.7,0-5,1-6.4,2.3c-1.7,1.6-2.8,4.8-2.8,7.7v26.2h-17.4V922.9z"/>
	<path class="st5" d="M346.2,930.5h37.5c0,14.4-2.9,24.6-11.7,32.7c-7.6,7.1-16.3,9.2-25.6,9.2c-13.1,0-22-4.8-27.9-10.8
		c-5.4-5.4-10.5-14.3-10.5-26.3c0-11.6,4.6-21,10.9-27.2c6-6,15.4-10.7,28.2-10.7c6.8,0,14.1,1.5,19.6,4.9c5.7,3.5,10.4,9.3,13,14.9
		l-18,7.4c-1.3-3.4-3.4-5.8-5.2-7.3c-3.2-2.6-6.5-3.6-10.1-3.6c-4.5,0-9,1.6-12.4,5c-4.3,4.3-6.3,11-6.3,16.7
		c0,6.6,2.4,12.1,5.8,15.7c3.5,3.7,7.7,5.6,13.3,5.6c3.3,0,7.1-0.5,10.5-3.4c1.7-1.4,3.8-4,4.5-8.1h-15.5V930.5z"/>
	<path class="st5" d="M447.1,950.5h-36.3c0,2.6,1,6.1,3.1,8.2c1.1,1.1,3.3,2.4,7.2,2.4c0.4,0,3.5-0.1,5.7-1.3
		c1.1-0.7,2.3-1.7,3.1-3.3h16.7c-0.8,2.7-2.3,6.5-5.9,10c-3.6,3.5-9.3,6.8-19.8,6.8c-6.4,0-14.2-1.4-20.2-7.4
		c-3.2-3.2-7.2-9.2-7.2-18.4c0-8.2,3.1-14.7,7.3-18.9c4-3.9,10.4-7.1,19.9-7.1c5.7,0,13,1.2,18.7,6.6c6.9,6.5,7.7,15,7.7,20.5V950.5
		z M431.1,940.5c-0.4-1.9-1.5-3.9-2.8-5.2c-2.3-2.3-5.4-2.6-7.2-2.6c-2.9,0-5.2,0.8-7.1,2.6c-1.2,1.3-2.3,3.1-2.6,5.2H431.1z"/>
	<path class="st5" d="M458.4,922.9h17.4v6.1c4.8-6.3,11.2-7.2,15.5-7.2c5,0,10.4,1.2,14.4,5.2c4.1,4.1,4.6,8.3,4.6,13.6v31h-17.4
		V947c0-2.8,0.1-7.1-2.2-9.5c-1.6-1.7-3.8-2.1-5.6-2.1c-2.7,0-5,1-6.4,2.3c-1.7,1.6-2.8,4.8-2.8,7.7v26.2h-17.4V922.9z"/>
	<path class="st5" d="M572.5,965.2c-6.4,6.3-14,8.1-21.8,8.1c-7.1,0-14.9-1.4-21.7-8.1c-5.3-5.2-7.5-11.4-7.5-18
		c0-8.7,3.9-14.4,7.5-17.9c4-3.9,11.1-8.1,21.7-8.1c10.8,0,17.8,4.3,21.8,8.1c3.6,3.5,7.5,9.2,7.5,17.9
		C580,953.8,577.9,960,572.5,965.2z M543,939.3c-2.2,2.1-3.4,5.1-3.4,8c0,2.9,1.4,5.8,3.4,7.7c2.1,2.1,4.9,3.3,7.8,3.3
		c2.8,0,5.7-1.2,7.7-3.3c2.2-2.1,3.4-4.9,3.4-7.7c0-2.6-1.2-5.8-3.4-8c-2-1.9-5-3.2-7.7-3.2C548,936.1,545,937.4,543,939.3z"/>
	<path class="st5" d="M591.4,922.9h17.4v5.9c4.1-5,9.8-6.8,14.6-6.8c3.5,0,6.8,0.8,9.4,2.2c3.6,1.9,5.6,4.6,6.8,7
		c2-3.5,4.5-5.6,6.6-6.8c3.5-2,6.9-2.4,10.1-2.4c3.6,0,9.5,0.5,13.5,4.5c4.4,4.2,4.6,10,4.6,13.4v31.7H657v-24.1
		c0-5.1-0.5-8.6-2.5-10.5c-1-0.9-2.3-1.6-4.6-1.6c-2,0-3.6,0.5-5.1,2c-2.9,2.8-3.2,6.9-3.2,9.3v25h-17.4v-24.1
		c0-4.7-0.3-8.4-2.3-10.5c-1.5-1.6-3.5-2-5.2-2c-1.9,0-3.4,0.3-4.8,1.7c-3.1,2.9-3.1,7.6-3.1,10.7v24.1h-17.4V922.9z"/>
	<path class="st5" d="M739.5,950.5h-36.3c0,2.6,1,6.1,3.1,8.2c1.1,1.1,3.3,2.4,7.2,2.4c0.4,0,3.5-0.1,5.7-1.3
		c1.1-0.7,2.3-1.7,3.1-3.3h16.7c-0.8,2.7-2.3,6.5-5.9,10c-3.6,3.5-9.3,6.8-19.8,6.8c-6.4,0-14.2-1.4-20.2-7.4
		c-3.2-3.2-7.2-9.2-7.2-18.4c0-8.2,3.1-14.7,7.3-18.9c4-3.9,10.4-7.1,19.9-7.1c5.7,0,13,1.2,18.7,6.6c6.9,6.5,7.7,15,7.7,20.5V950.5
		z M723.5,940.5c-0.4-1.9-1.5-3.9-2.8-5.2c-2.3-2.3-5.5-2.6-7.2-2.6c-2.9,0-5.2,0.8-7.1,2.6c-1.2,1.3-2.3,3.1-2.6,5.2H723.5z"/>
	<path class="st5" d="M752.5,971.7V899h28.1c5.2,0,11.4,0.8,15.9,5.7c2.5,2.7,4.5,7.2,4.5,13.6c0,3.2-0.5,5.9-2.1,8.9
		c-1.5,2.8-3.2,4.5-5.9,5.7c3.8,0.4,7.6,2.2,9.9,4.4c2.9,2.8,4.9,7.5,4.9,13.3c0,6.9-2.6,11.6-5.3,14.3c-3.9,4-10.8,6.9-19.7,6.9
		H752.5z M771.3,927.6h3.5c2,0,5.2-0.2,7.2-2.3c1.2-1.2,1.7-3.2,1.7-4.8c0-1.9-0.7-3.7-1.7-4.9c-1.2-1.2-3.5-2.2-7.2-2.2h-3.5V927.6
		z M771.3,956.9h4.3c5.2,0,9.6-0.5,11.7-2.9c0.9-1,1.5-2.6,1.5-4.7c0-2.3-0.8-4.1-1.9-5.2c-2.3-2.3-7-2.4-11.7-2.4h-3.9V956.9z"/>
	<path class="st5" d="M819.5,922.9H837v8c1.7-3.3,4.3-5.4,6.9-6.8c2.6-1.4,5.8-2,9-2c0.4,0,1.2,0.1,3.5,0.2v16.5
		c-0.9-0.4-3.3-1.7-7.5-1.7c-2.3,0-5.4,0.3-8,2.6c-3.7,3.4-3.9,8.5-3.9,11.1v20.8h-17.4V922.9z"/>
	<path class="st5" d="M912.3,965.2c-6.4,6.3-14,8.1-21.8,8.1c-7.1,0-14.9-1.4-21.7-8.1c-5.3-5.2-7.5-11.4-7.5-18
		c0-8.7,3.9-14.4,7.5-17.9c4-3.9,11.1-8.1,21.7-8.1c10.8,0,17.8,4.3,21.8,8.1c3.6,3.5,7.5,9.2,7.5,17.9
		C919.8,953.8,917.6,960,912.3,965.2z M882.7,939.3c-2.2,2.1-3.4,5.1-3.4,8c0,2.9,1.4,5.8,3.4,7.7c2.1,2.1,4.9,3.3,7.8,3.3
		c2.8,0,5.7-1.2,7.7-3.3c2.2-2.1,3.4-4.9,3.4-7.7c0-2.6-1.2-5.8-3.4-8c-2-1.9-5-3.2-7.7-3.2C887.8,936.1,884.7,937.4,882.7,939.3z"
		/>
	<path class="st5" d="M944.7,922.9l11.6,25.7l12.3-25.7h10.7l12.3,26.5l12.2-26.5h19.4l-25.5,48.7h-11.8l-12.2-26.8L962,971.7h-11.8
		l-25.1-48.7H944.7z"/>
	<path class="st5" d="M1033.6,955.5c2.1,1.5,4.6,2.8,7,3.6c2.2,0.8,4.9,1.2,6.8,1.2c1.3,0,3.4-0.3,4.5-1.3c0.8-0.8,0.9-1.4,0.9-2.3
		c0-0.8-0.1-1.5-0.9-2.2c-1.1-1-2.8-1.3-4.6-1.7l-4.6-1.1c-2.4-0.5-5.9-1.4-8.5-4.2c-1.9-2-3.2-4.7-3.2-8.4c0-4.7,1.9-9,4.6-11.9
		c3.7-3.8,10.2-5.9,17.4-5.9c7.2,0,12.8,2,15.6,3.2l-5.9,11.1c-2.4-1.1-6-2.4-9.2-2.4c-1.7,0-2.9,0.3-4,1c-1,0.5-1.5,1.3-1.5,2.4
		c0,1.5,1,2.3,2.1,2.7c1.6,0.7,3.1,0.7,5.8,1.4l3.2,0.9c2.3,0.7,5.8,2.4,7.2,3.8c2.4,2.3,3.7,6.1,3.7,9.7c0,5.9-2.5,9.8-4.9,12.1
		c-5.7,5.7-14,6.1-18,6.1c-4.4,0-11.2-0.5-19.6-5.7L1033.6,955.5z"/>
	<path class="st5" d="M1131.8,950.5h-36.3c0,2.6,1,6.1,3.1,8.2c1.1,1.1,3.3,2.4,7.2,2.4c0.4,0,3.5-0.1,5.7-1.3
		c1.1-0.7,2.3-1.7,3.1-3.3h16.7c-0.8,2.7-2.3,6.5-5.9,10c-3.6,3.5-9.3,6.8-19.8,6.8c-6.4,0-14.2-1.4-20.2-7.4
		c-3.2-3.2-7.2-9.2-7.2-18.4c0-8.2,3.1-14.7,7.3-18.9c4-3.9,10.4-7.1,19.9-7.1c5.7,0,13,1.2,18.7,6.6c6.9,6.5,7.7,15,7.7,20.5V950.5
		z M1115.8,940.5c-0.4-1.9-1.5-3.9-2.8-5.2c-2.3-2.3-5.5-2.6-7.2-2.6c-2.9,0-5.2,0.8-7.1,2.6c-1.2,1.3-2.3,3.1-2.6,5.2H1115.8z"/>
	<path class="st5" d="M1143.1,922.9h17.4v8c1.7-3.3,4.3-5.4,6.9-6.8c2.6-1.4,5.8-2,9-2c0.4,0,1.2,0.1,3.5,0.2v16.5
		c-0.9-0.4-3.3-1.7-7.5-1.7c-2.3,0-5.4,0.3-8,2.6c-3.7,3.4-3.9,8.5-3.9,11.1v20.8h-17.4V922.9z"/>
</g>
</svg>
