<?xml version="1.0" encoding="utf-8"?>
<!-- Generator: Adobe Illustrator 24.1.2, SVG Export Plug-In . SVG Version: 6.00 Build 0)  -->
<svg version="1.1" id="Ebene_1" xmlns="http://www.w3.org/2000/svg" xmlns:xlink="http://www.w3.org/1999/xlink" x="0px" y="0px"
	 viewBox="0 0 1200 1000" style="enable-background:new 0 0 1200 1000;" xml:space="preserve">
<style type="text/css">
	.st0{opacity:0.6;fill:#3AA07A;}
	.st1{opacity:0.6;fill:#3593B7;}
	.st2{opacity:0.6;fill:#5F10A0;}
	.st3{fill:none;stroke:url(#SVGID_1_);stroke-width:20;stroke-linecap:round;stroke-miterlimit:10;}
	.st4{fill:none;stroke:url(#SVGID_2_);stroke-width:20;stroke-linecap:round;stroke-miterlimit:10;}
	.st5{fill:#311E5C;}
</style>
<path class="st0" d="M345.15,183.45c-92.91,0.11-168.14,75.51-168.03,168.42c0.11,92.91,75.51,168.14,168.42,168.03
	c92.91-0.11,168.14-75.51,168.03-168.42S438.06,183.35,345.15,183.45z M345.43,422.9c-39.34,0.05-71.26-31.81-71.31-71.14
	c-0.05-39.33,31.8-71.26,71.14-71.3c39.33-0.05,71.26,31.81,71.3,71.14C416.61,390.93,384.76,422.85,345.43,422.9z"/>
<path class="st1" d="M753.26,566.3l-0.25-215.09c-0.11-92.91-75.51-168.14-168.42-168.03c-92.91,0.11-168.14,75.51-168.03,168.42
	c0.11,92.91,75.51,168.14,168.42,168.03c25.46-0.03,49.58-5.75,71.2-15.9l0.07,62.68h0.02c0.05,39.36-31.83,71.27-71.15,71.31
	c-33,0.04-60.76-22.34-68.9-52.77c-2.89-10.82-12.66-18.36-23.86-18.35l-75.56,0.09c0.11,92.91,75.52,168.15,168.43,168.04
	s168.15-75.51,168.04-168.42H753.26z M584.87,422.62c-39.34,0.05-71.26-31.81-71.31-71.14s31.81-71.26,71.14-71.3
	c39.34-0.05,71.26,31.81,71.3,71.14C656.06,390.65,624.21,422.58,584.87,422.62z"/>
<path class="st2" d="M833.14,183.13c-28.78-1.47-56.05,4.33-80.2,15.67l-0.19-162.16c-0.02-20.32-16.52-36.78-36.84-36.76
	l-60.21,0.07l0.4,348.61c0.11,93.7,75.61,171.37,169.3,170.78c94.88-0.59,171.08-79.71,166.99-175.58
	C988.73,257.71,919.16,187.53,833.14,183.13z M828.96,422.2c-41.39,2.62-75.8-30.16-75.85-70.99h0v-0.02
	c-0.04-31.22,20.01-59.53,50-68.22c49.11-14.22,93.76,23.01,92.41,70.25C894.48,389.63,865.31,419.91,828.96,422.2z"/>
<linearGradient id="SVGID_1_" gradientUnits="userSpaceOnUse" x1="154.9463" y1="356.5074" x2="1021.7327" y2="356.5074" gradientTransform="matrix(1 -1.147093e-03 1.147093e-03 1 -3.7493 -4.4301)">
	<stop  offset="0.1701" style="stop-color:#3AA07A"/>
	<stop  offset="0.2782" style="stop-color:#399C8C"/>
	<stop  offset="0.4816" style="stop-color:#3593B7"/>
	<stop  offset="0.6877" style="stop-color:#513BA8"/>
	<stop  offset="0.7858" style="stop-color:#5F10A0"/>
</linearGradient>
<path class="st3" d="M1008.32,286.88l-63.94,64.1l-60.87,60.99c-32.47,32.54-85.17,32.6-117.73,0.14l-60.99-60.85l61,60.86
	l-60.99-60.85l-61.01-60.87c-30.75-30.68-79.53-32.3-112.21-4.9c-0.04,0.04-0.07,0.05-0.11,0.11c-1.85,1.54-3.65,3.18-5.4,4.93
	l-60.61,60.75l-0.25,0.27l-64.26,64.39c-0.53,0.53-1.06,1.06-1.57,1.61l-0.02,0.02l66.35-66.02l-0.26,0.26l-60.61,60.74
	c-1.77,1.77-3.58,3.45-5.47,5l-0.02,0.02c-32.66,27.45-81.46,25.82-112.23-4.88l-60.99-60.85l-64.4-64.25
	c-0.07-0.07-0.12-0.12-0.21-0.19"/>
<linearGradient id="SVGID_2_" gradientUnits="userSpaceOnUse" x1="154.9463" y1="356.5068" x2="1021.7327" y2="356.5068" gradientTransform="matrix(1 -1.147093e-03 1.147093e-03 1 -3.7493 -4.4301)">
	<stop  offset="0.1701" style="stop-color:#3AA07A"/>
	<stop  offset="0.2782" style="stop-color:#399C8C"/>
	<stop  offset="0.4816" style="stop-color:#3593B7"/>
	<stop  offset="0.6877" style="stop-color:#513BA8"/>
	<stop  offset="0.7858" style="stop-color:#5F10A0"/>
</linearGradient>
<path class="st4" d="M1008.47,414.93l-64.09-63.94l-61.01-60.87c-32.54-32.45-85.25-32.39-117.73,0.14l-60.85,61.01l60.86-61.01
	l-60.85,61.01l-60.87,60.99c-30.7,30.77-79.48,32.5-112.22,5.14l-0.02-0.02c-1.87-1.55-3.71-3.23-5.48-4.99l-60.75-60.61l-0.25-0.25
	l-64.4-64.26c-0.51-0.51-1.01-1.02-1.5-1.53c-0.04-0.04-0.07-0.07-0.11-0.11l66.52,65.89l-0.26-0.26l-60.75-60.61
	c-1.75-1.73-3.54-3.38-5.39-4.92c-0.05-0.03-0.09-0.07-0.12-0.1c-32.72-27.32-81.51-25.58-112.2,5.16l-60.85,61.01l-64.25,64.4
	c-0.07,0.07-0.12,0.12-0.21,0.19"/>
<g>
	<path class="st5" d="M4.03,951.64c0-3.59,0.71-6.94,2.16-10.06c1.44-3.12,3.46-5.83,6.04-8.13c2.58-2.3,5.65-4.12,9.2-5.44
		s7.44-1.99,11.66-2c4.16,0,8.01,0.64,11.57,1.92c3.56,1.29,6.65,3.08,9.26,5.37c2.61,2.3,4.65,5.03,6.1,8.21
		c1.45,3.18,2.18,6.69,2.18,10.53c0,3.84-0.73,7.35-2.21,10.53s-3.5,5.92-6.08,8.22c-2.58,2.3-5.68,4.08-9.3,5.35
		c-3.62,1.26-7.54,1.9-11.76,1.9c-4.16,0-8-0.62-11.53-1.88c-3.53-1.26-6.57-3.05-9.12-5.37c-2.55-2.33-4.56-5.11-6.01-8.35
		C4.76,959.21,4.04,955.6,4.03,951.64z M22.07,951.81c0,1.64,0.3,3.13,0.9,4.49c0.6,1.35,1.39,2.53,2.37,3.54
		c0.98,1.01,2.14,1.79,3.5,2.36c1.35,0.56,2.79,0.85,4.3,0.84c1.51,0,2.94-0.29,4.3-0.85c1.35-0.57,2.52-1.36,3.49-2.37
		c0.98-1.01,1.76-2.19,2.36-3.55c0.6-1.35,0.89-2.82,0.89-4.39c0-1.51-0.3-2.94-0.9-4.3c-0.6-1.35-1.39-2.53-2.37-3.54
		c-0.98-1.01-2.14-1.79-3.5-2.36c-1.35-0.57-2.79-0.85-4.3-0.85c-1.51,0-2.94,0.29-4.3,0.86c-1.35,0.57-2.52,1.36-3.49,2.37
		c-0.98,1.01-1.76,2.17-2.36,3.5C22.37,948.88,22.07,950.29,22.07,951.81z"/>
	<path class="st5" d="M91.55,1000.37l-17.1,0.02l-0.08-72.64l17.1-0.02l0.01,5.38c3.65-4.6,8.62-6.91,14.92-6.91
		c3.46,0,6.69,0.67,9.68,2.02c2.99,1.35,5.59,3.19,7.8,5.52c2.21,2.33,3.92,5.07,5.16,8.21c1.23,3.15,1.85,6.52,1.85,10.1
		c0,3.59-0.61,6.93-1.83,10.01c-1.23,3.09-2.92,5.8-5.09,8.13c-2.17,2.33-4.73,4.16-7.69,5.49c-2.96,1.33-6.17,1.99-9.63,1.99
		c-6.04,0.01-11.09-2.07-15.12-6.22L91.55,1000.37z M113.04,952.08c0-1.51-0.27-2.94-0.81-4.3c-0.54-1.35-1.31-2.53-2.32-3.54
		c-1.01-1-2.19-1.81-3.55-2.4c-1.35-0.6-2.82-0.89-4.39-0.89c-1.51,0-2.93,0.29-4.25,0.85c-1.32,0.57-2.47,1.36-3.44,2.37
		c-0.98,1.01-1.76,2.19-2.36,3.55c-0.6,1.36-0.89,2.79-0.89,4.3c0,1.51,0.29,2.93,0.86,4.25c0.57,1.32,1.36,2.47,2.37,3.44
		c1.01,0.98,2.19,1.76,3.55,2.36c1.35,0.6,2.79,0.89,4.3,0.89c1.51,0,2.93-0.29,4.25-0.85c1.32-0.57,2.47-1.36,3.44-2.37
		c0.98-1.01,1.76-2.17,2.36-3.5C112.74,954.91,113.04,953.53,113.04,952.08z"/>
	<path class="st5" d="M158.38,954.77c0.01,7.37,3.47,11.05,10.4,11.04c3.71,0,6.52-1.52,8.4-4.54l16.53-0.02
		c-3.33,11.09-11.66,16.64-25.01,16.65c-4.09,0-7.84-0.6-11.24-1.83c-3.4-1.22-6.32-2.97-8.74-5.23c-2.43-2.26-4.3-4.97-5.63-8.12
		c-1.33-3.15-1.99-6.67-2-10.58c0-4.03,0.62-7.67,1.88-10.91c1.26-3.24,3.05-6,5.38-8.27c2.33-2.27,5.14-4.02,8.45-5.25
		c3.31-1.23,7.04-1.85,11.19-1.86c4.09,0,7.78,0.6,11.05,1.83c3.27,1.22,6.05,3,8.32,5.33c2.27,2.33,4,5.18,5.2,8.54
		c1.2,3.37,1.8,7.16,1.81,11.38l0,1.79L158.38,954.77z M178.39,944.83c-0.57-2.39-1.74-4.31-3.5-5.76
		c-1.76-1.45-3.91-2.17-6.42-2.17c-2.65,0-4.8,0.7-6.47,2.09c-1.67,1.39-2.72,3.34-3.16,5.86L178.39,944.83z"/>
	<path class="st5" d="M206.42,927.6l17.1-0.02l0.01,6.14c2.33-2.84,4.68-4.74,7.08-5.72c2.39-0.98,5.19-1.47,8.4-1.47
		c3.4,0,6.31,0.54,8.74,1.64c2.43,1.1,4.49,2.66,6.19,4.67c1.39,1.64,2.33,3.46,2.84,5.47c0.51,2.01,0.76,4.31,0.76,6.89l0.04,30.79
		l-17.1,0.02l-0.03-24.46c0-2.39-0.18-4.33-0.53-5.81c-0.35-1.48-0.96-2.66-1.85-3.54c-0.76-0.76-1.61-1.29-2.55-1.6
		c-0.94-0.31-1.95-0.47-3.02-0.47c-2.9,0-5.12,0.87-6.66,2.6c-1.54,1.74-2.31,4.21-2.31,7.42l0.03,25.88l-17.1,0.02L206.42,927.6z"
		/>
	<path class="st5" d="M360.2,927.43l0.05,45.15c0,2.71-0.15,5.13-0.46,7.27c-0.31,2.14-0.75,4.03-1.32,5.67
		c-0.75,2.08-1.93,4.02-3.54,5.81c-1.6,1.8-3.54,3.36-5.8,4.68c-2.26,1.33-4.83,2.37-7.69,3.13c-2.87,0.76-5.97,1.14-9.3,1.14
		c-3.78,0-7.24-0.46-10.39-1.41c-3.15-0.94-5.91-2.25-8.27-3.91c-2.36-1.67-4.3-3.62-5.82-5.85c-1.51-2.23-2.53-4.67-3.03-7.32
		l19.27-0.02c1.2,3.21,3.91,4.81,8.13,4.81c3.59,0,6.34-1.02,8.26-3.03c1.92-2.02,2.87-4.82,2.87-8.41l-0.01-4.63
		c-1.26,1.2-2.47,2.19-3.63,2.98c-1.16,0.79-2.35,1.44-3.54,1.94c-1.2,0.5-2.45,0.87-3.78,1.09c-1.32,0.22-2.77,0.33-4.35,0.34
		c-3.46,0-6.64-0.59-9.54-1.78c-2.9-1.19-5.4-2.86-7.52-5c-2.11-2.14-3.75-4.7-4.92-7.69c-1.17-2.99-1.75-6.31-1.76-9.96
		c0-3.72,0.62-7.16,1.88-10.34c1.26-3.18,2.97-5.95,5.14-8.32c2.17-2.36,4.75-4.22,7.74-5.58c2.99-1.36,6.25-2.04,9.77-2.04
		c5.73-0.01,10.55,2.13,14.46,6.41l-0.01-5.1L360.2,927.43z M321.87,951.46c0,1.57,0.29,3.04,0.86,4.39
		c0.57,1.35,1.34,2.53,2.32,3.54c0.98,1.01,2.14,1.79,3.5,2.36c1.35,0.56,2.82,0.85,4.39,0.85c1.51,0,2.94-0.29,4.3-0.86
		c1.35-0.57,2.52-1.36,3.49-2.37c0.98-1.01,1.76-2.19,2.36-3.55c0.6-1.35,0.89-2.79,0.89-4.3c0-1.57-0.3-3.02-0.9-4.34
		c-0.6-1.32-1.4-2.49-2.41-3.49c-1.01-1.01-2.19-1.79-3.54-2.36c-1.36-0.57-2.76-0.85-4.2-0.85c-1.51,0-2.93,0.3-4.25,0.9
		c-1.32,0.6-2.49,1.39-3.49,2.37c-1.01,0.98-1.81,2.13-2.4,3.45C322.17,948.53,321.87,949.95,321.87,951.46z"/>
	<path class="st5" d="M390.73,954.5c0.01,7.37,3.47,11.05,10.4,11.04c3.71,0,6.52-1.52,8.4-4.54l16.53-0.02
		c-3.33,11.09-11.66,16.64-25.01,16.65c-4.09,0-7.84-0.6-11.24-1.83c-3.4-1.22-6.32-2.97-8.74-5.23c-2.43-2.26-4.3-4.97-5.63-8.12
		c-1.33-3.15-1.99-6.67-2-10.58c0-4.03,0.62-7.67,1.88-10.91c1.26-3.24,3.05-6,5.38-8.27c2.33-2.27,5.14-4.02,8.45-5.25
		c3.31-1.23,7.04-1.85,11.19-1.86c4.09,0,7.78,0.6,11.05,1.83c3.27,1.22,6.05,3,8.32,5.33c2.27,2.33,4,5.18,5.2,8.54
		c1.2,3.37,1.8,7.16,1.81,11.38l0,1.79L390.73,954.5z M410.75,944.56c-0.57-2.39-1.74-4.31-3.5-5.76c-1.76-1.45-3.91-2.17-6.42-2.17
		c-2.65,0-4.8,0.7-6.47,2.09c-1.67,1.39-2.72,3.34-3.16,5.86L410.75,944.56z"/>
	<path class="st5" d="M438.78,927.34l17.1-0.02l0.01,6.14c2.33-2.84,4.68-4.74,7.08-5.72c2.39-0.98,5.19-1.47,8.4-1.47
		c3.4,0,6.31,0.54,8.74,1.64c2.43,1.1,4.49,2.66,6.19,4.67c1.39,1.64,2.33,3.46,2.84,5.47c0.51,2.01,0.76,4.31,0.76,6.89l0.04,30.79
		l-17.1,0.02l-0.03-24.46c0-2.39-0.18-4.33-0.53-5.81c-0.35-1.48-0.96-2.66-1.85-3.54c-0.76-0.76-1.61-1.29-2.55-1.6
		c-0.94-0.31-1.95-0.47-3.02-0.47c-2.9,0-5.12,0.87-6.66,2.6c-1.54,1.74-2.31,4.21-2.31,7.42l0.03,25.88l-17.1,0.02L438.78,927.34z"
		/>
	<path class="st5" d="M502,951.07c0-3.59,0.71-6.94,2.16-10.06c1.44-3.12,3.46-5.83,6.04-8.13c2.58-2.3,5.65-4.12,9.2-5.44
		c3.56-1.33,7.44-1.99,11.66-2c4.16,0,8.01,0.64,11.57,1.92c3.56,1.29,6.65,3.08,9.26,5.37c2.61,2.3,4.65,5.03,6.1,8.21
		c1.45,3.18,2.18,6.69,2.18,10.53c0,3.84-0.73,7.35-2.21,10.53c-1.48,3.18-3.5,5.92-6.08,8.22c-2.58,2.3-5.68,4.08-9.3,5.35
		c-3.62,1.26-7.54,1.9-11.76,1.9c-4.16,0-8-0.62-11.53-1.88c-3.53-1.26-6.57-3.05-9.12-5.37c-2.55-2.33-4.56-5.11-6.01-8.35
		C502.73,958.64,502,955.03,502,951.07z M520.04,951.23c0,1.64,0.3,3.13,0.9,4.49c0.6,1.35,1.39,2.53,2.37,3.54
		c0.98,1.01,2.14,1.79,3.5,2.36c1.35,0.56,2.79,0.85,4.3,0.84c1.51,0,2.94-0.29,4.3-0.85c1.35-0.57,2.52-1.36,3.49-2.37
		c0.98-1.01,1.76-2.19,2.36-3.55c0.6-1.35,0.89-2.82,0.89-4.39c0-1.51-0.3-2.94-0.9-4.3c-0.6-1.35-1.39-2.53-2.37-3.54
		c-0.98-1.01-2.14-1.79-3.5-2.36c-1.35-0.57-2.79-0.85-4.3-0.85c-1.51,0-2.94,0.29-4.3,0.86c-1.35,0.57-2.52,1.36-3.49,2.37
		c-0.98,1.01-1.76,2.17-2.36,3.5C520.33,948.31,520.04,949.72,520.04,951.23z"/>
	<path class="st5" d="M572.34,927.18l17.1-0.02l0.01,5.95c4.65-4.48,9.88-6.72,15.67-6.72c7.18-0.01,12.66,3.01,16.45,9.05
		c3.83-6.11,9.31-9.17,16.43-9.18c2.27,0,4.41,0.33,6.42,0.98c2.01,0.66,3.75,1.7,5.2,3.11c1.45,1.42,2.6,3.26,3.45,5.52
		c0.85,2.27,1.28,5.01,1.28,8.22l0.04,31.45l-17.1,0.02l-0.03-23.9c0-2.46-0.18-4.47-0.53-6.05c-0.35-1.57-0.85-2.8-1.52-3.68
		c-0.66-0.88-1.43-1.48-2.32-1.79c-0.88-0.31-1.83-0.47-2.83-0.47c-5.48,0.01-8.21,4.01-8.2,12l0.03,23.9l-17.1,0.02l-0.03-23.9
		c0-2.46-0.16-4.49-0.48-6.09c-0.32-1.61-0.77-2.88-1.37-3.82c-0.6-0.94-1.37-1.59-2.32-1.93c-0.94-0.34-2.05-0.52-3.31-0.52
		c-1.07,0-2.08,0.16-3.02,0.47c-0.94,0.32-1.78,0.93-2.5,1.85c-0.72,0.91-1.29,2.17-1.7,3.78c-0.41,1.61-0.61,3.7-0.61,6.28
		l0.03,23.9l-17.1,0.02L572.34,927.18z"/>
	<path class="st5" d="M683.83,954.16c0.01,7.37,3.47,11.05,10.4,11.04c3.71,0,6.52-1.52,8.4-4.54l16.53-0.02
		c-3.33,11.09-11.66,16.64-25.01,16.65c-4.09,0-7.84-0.6-11.24-1.83c-3.4-1.22-6.32-2.97-8.74-5.23c-2.43-2.26-4.3-4.97-5.63-8.12
		c-1.33-3.15-1.99-6.67-2-10.58c0-4.03,0.62-7.67,1.88-10.91c1.26-3.24,3.05-6,5.38-8.27c2.33-2.27,5.14-4.02,8.45-5.25
		c3.31-1.23,7.04-1.85,11.19-1.86c4.09,0,7.78,0.6,11.05,1.83c3.27,1.22,6.05,3,8.32,5.33c2.27,2.33,4,5.18,5.2,8.54
		c1.2,3.37,1.8,7.16,1.81,11.38l0,1.79L683.83,954.16z M703.84,944.22c-0.57-2.39-1.74-4.31-3.5-5.76
		c-1.76-1.45-3.91-2.17-6.42-2.17c-2.65,0-4.8,0.7-6.47,2.09c-1.67,1.39-2.72,3.34-3.16,5.86L703.84,944.22z"/>
	<path class="st5" d="M783.41,897l0.04,34.76c4.02-4.22,9.06-6.34,15.11-6.35c3.59,0,6.88,0.67,9.87,2.02
		c2.99,1.35,5.54,3.17,7.66,5.47c2.11,2.3,3.77,5,4.97,8.12c1.2,3.12,1.8,6.44,1.81,9.96c0,3.59-0.61,6.96-1.83,10.11
		c-1.23,3.15-2.94,5.89-5.14,8.22c-2.2,2.33-4.8,4.18-7.79,5.53c-2.99,1.36-6.22,2.04-9.68,2.04c-6.3,0.01-11.28-2.29-14.93-6.88
		l0.01,5.38l-17.1,0.02l-0.09-78.4L783.41,897z M805.01,951.29c0-1.51-0.29-2.94-0.86-4.3c-0.57-1.35-1.36-2.53-2.37-3.54
		c-1.01-1-2.17-1.81-3.5-2.4c-1.32-0.6-2.77-0.89-4.35-0.89c-1.51,0-2.93,0.29-4.25,0.85c-1.32,0.57-2.47,1.36-3.44,2.37
		c-0.98,1.01-1.76,2.19-2.36,3.55c-0.6,1.36-0.89,2.79-0.89,4.3c0,1.51,0.29,2.93,0.86,4.25c0.57,1.32,1.36,2.47,2.37,3.44
		c1.01,0.98,2.19,1.76,3.55,2.36c1.35,0.6,2.79,0.89,4.3,0.89c1.51,0,2.93-0.29,4.25-0.85c1.32-0.57,2.47-1.36,3.44-2.37
		c0.98-1.01,1.76-2.17,2.36-3.5C804.72,954.12,805.01,952.73,805.01,951.29z"/>
	<path class="st5" d="M834.93,926.88l17.1-0.02l0.01,7.93c1.82-2.9,4.06-5.12,6.7-6.67c2.64-1.55,5.73-2.32,9.25-2.32
		c0.44,0,0.93,0,1.46,0c0.53,0,1.15,0.06,1.84,0.19l0.02,16.34c-2.27-1.13-4.72-1.69-7.37-1.69c-3.97,0-6.94,1.19-8.92,3.55
		c-1.98,2.36-2.97,5.81-2.96,10.35l0.02,20.78l-17.1,0.02L834.93,926.88z"/>
	<path class="st5" d="M879.82,950.63c0-3.59,0.71-6.94,2.16-10.06c1.44-3.12,3.46-5.83,6.04-8.13c2.58-2.3,5.65-4.12,9.2-5.44
		s7.44-1.99,11.66-2c4.16,0,8.01,0.64,11.57,1.92c3.56,1.29,6.65,3.08,9.26,5.37c2.61,2.3,4.65,5.03,6.1,8.21
		c1.45,3.18,2.18,6.69,2.18,10.53c0,3.84-0.73,7.35-2.21,10.53s-3.5,5.92-6.08,8.22c-2.58,2.3-5.68,4.08-9.3,5.35
		c-3.62,1.26-7.54,1.9-11.76,1.9c-4.16,0-8-0.62-11.53-1.88c-3.53-1.26-6.57-3.05-9.12-5.37c-2.55-2.33-4.56-5.11-6.01-8.35
		C880.55,958.2,879.83,954.6,879.82,950.63z M897.86,950.8c0,1.64,0.3,3.13,0.9,4.49c0.6,1.35,1.39,2.53,2.37,3.54
		c0.98,1.01,2.14,1.79,3.5,2.36c1.35,0.56,2.79,0.85,4.3,0.84c1.51,0,2.94-0.29,4.3-0.85c1.35-0.57,2.52-1.36,3.49-2.37
		s1.76-2.19,2.36-3.55c0.6-1.35,0.89-2.82,0.89-4.39c0-1.51-0.3-2.94-0.9-4.3c-0.6-1.35-1.39-2.53-2.37-3.54
		c-0.98-1.01-2.14-1.79-3.5-2.36c-1.35-0.57-2.79-0.85-4.3-0.85c-1.51,0-2.94,0.29-4.3,0.86c-1.35,0.57-2.52,1.36-3.49,2.37
		c-0.98,1.01-1.76,2.17-2.36,3.5C898.16,947.87,897.86,949.29,897.86,950.8z"/>
	<path class="st5" d="M960.93,926.74l11.65,25.49l12.06-25.52l10.77-0.01l12.12,26.24l12.15-26.27l18.99-0.02l-25.26,48.48
		l-11.43,0.01l-12.12-26.53l-11.49,26.55l-11.62,0.01l-24.9-48.43L960.93,926.74z"/>
	<path class="st5" d="M1076.85,939.07c-3.15-1.63-6.24-2.45-9.26-2.45c-1.57,0-2.85,0.32-3.82,0.95c-0.98,0.63-1.46,1.48-1.46,2.55
		c0,0.57,0.08,1.02,0.24,1.37c0.16,0.35,0.5,0.68,1.04,0.99c0.53,0.32,1.32,0.6,2.36,0.85c1.04,0.25,2.41,0.56,4.11,0.94
		c4.72,0.94,8.25,2.62,10.59,5.04c2.33,2.42,3.5,5.52,3.51,9.3c0,2.83-0.56,5.38-1.69,7.65c-1.13,2.27-2.7,4.17-4.72,5.72
		c-2.01,1.55-4.44,2.74-7.27,3.6c-2.83,0.85-5.95,1.28-9.35,1.29c-6.55,0.01-13.01-1.84-19.37-5.55l6.22-12.1
		c4.79,3.27,9.32,4.9,13.61,4.9c1.57,0,2.86-0.35,3.87-1.04c1-0.69,1.51-1.58,1.51-2.65c0-0.63-0.08-1.15-0.24-1.56
		c-0.16-0.41-0.49-0.79-0.99-1.13c-0.51-0.34-1.24-0.66-2.22-0.94c-0.98-0.28-2.25-0.58-3.83-0.89c-5.29-1.06-8.99-2.65-11.1-4.76
		c-2.11-2.11-3.17-5.02-3.17-8.73c0-2.71,0.5-5.15,1.5-7.32c1-2.17,2.45-4.02,4.34-5.53c1.89-1.51,4.17-2.68,6.84-3.5
		c2.67-0.82,5.65-1.23,8.92-1.24c5.35-0.01,10.55,1.03,15.59,3.1L1076.85,939.07z"/>
	<path class="st5" d="M1110.58,953.67c0.01,7.37,3.47,11.05,10.4,11.04c3.71,0,6.52-1.52,8.4-4.54l16.53-0.02
		c-3.33,11.09-11.66,16.64-25.01,16.65c-4.09,0-7.84-0.6-11.24-1.83c-3.4-1.22-6.32-2.97-8.74-5.23c-2.43-2.26-4.3-4.97-5.63-8.12
		c-1.33-3.15-1.99-6.67-2-10.58c0-4.03,0.62-7.67,1.88-10.91c1.26-3.24,3.05-6,5.38-8.27c2.33-2.27,5.14-4.02,8.45-5.25
		c3.31-1.23,7.04-1.85,11.19-1.86c4.09,0,7.78,0.6,11.05,1.83c3.27,1.22,6.05,3,8.32,5.33c2.27,2.33,4,5.18,5.2,8.54
		c1.2,3.37,1.8,7.16,1.81,11.38l0,1.79L1110.58,953.67z M1130.6,943.73c-0.57-2.39-1.74-4.31-3.5-5.76
		c-1.76-1.45-3.91-2.17-6.42-2.17c-2.65,0-4.8,0.7-6.47,2.09c-1.67,1.39-2.72,3.34-3.16,5.86L1130.6,943.73z"/>
	<path class="st5" d="M1158.63,926.51l17.1-0.02l0.01,7.93c1.82-2.9,4.06-5.12,6.7-6.67c2.64-1.55,5.73-2.32,9.25-2.32
		c0.44,0,0.93,0,1.46,0c0.53,0,1.15,0.06,1.84,0.19l0.02,16.34c-2.27-1.13-4.72-1.69-7.37-1.69c-3.97,0-6.94,1.19-8.92,3.55
		c-1.98,2.36-2.97,5.81-2.96,10.35l0.02,20.78l-17.1,0.02L1158.63,926.51z"/>
</g>
</svg>
