<?xml version="1.0" encoding="UTF-8"?>
<svg enable-background="new 0 0 1200 1000" version="1.1" viewBox="0 0 1200 1e3" xml:space="preserve" xmlns="http://www.w3.org/2000/svg" xmlns:cc="http://creativecommons.org/ns#" xmlns:dc="http://purl.org/dc/elements/1.1/" xmlns:rdf="http://www.w3.org/1999/02/22-rdf-syntax-ns#"><metadata><rdf:RDF><cc:Work rdf:about=""><dc:format>image/svg+xml</dc:format><dc:type rdf:resource="http://purl.org/dc/dcmitype/StillImage"/><dc:title/></cc:Work></rdf:RDF></metadata>
<style type="text/css">
	.st0{opacity:0.6;fill:#3AA07A;}
	.st1{opacity:0.6;fill:#3593B7;}
	.st2{opacity:0.6;fill:#5F10A0;}
	.st3{fill:none;stroke:url(#SVGID_1_);stroke-width:20;stroke-linecap:round;stroke-miterlimit:10;}
	.st4{fill:none;stroke:url(#SVGID_2_);stroke-width:20;stroke-linecap:round;stroke-miterlimit:10;}
	.st5{fill:#311E5C;}
</style>
<path class="st0" d="m345.15 183.45c-92.91 0.11-168.14 75.51-168.03 168.42s75.51 168.14 168.42 168.03 168.14-75.51 168.03-168.42-75.51-168.13-168.42-168.03zm0.28 239.45c-39.34 0.05-71.26-31.81-71.31-71.14s31.8-71.26 71.14-71.3c39.33-0.05 71.26 31.81 71.3 71.14 0.05 39.33-31.8 71.25-71.13 71.3z"/>
<path class="st1" d="m753.26 566.3-0.25-215.09c-0.11-92.91-75.51-168.14-168.42-168.03s-168.14 75.51-168.03 168.42 75.51 168.14 168.42 168.03c25.46-0.03 49.58-5.75 71.2-15.9l0.07 62.68h0.02c0.05 39.36-31.83 71.27-71.15 71.31-33 0.04-60.76-22.34-68.9-52.77-2.89-10.82-12.66-18.36-23.86-18.35l-75.56 0.09c0.11 92.91 75.52 168.15 168.43 168.04s168.15-75.51 168.04-168.42h-0.01zm-168.39-143.68c-39.34 0.05-71.26-31.81-71.31-71.14s31.81-71.26 71.14-71.3c39.34-0.05 71.26 31.81 71.3 71.14 0.06 39.33-31.79 71.26-71.13 71.3z"/>
<path class="st2" d="m833.14 183.13c-28.78-1.47-56.05 4.33-80.2 15.67l-0.19-162.16c-0.02-20.32-16.52-36.78-36.84-36.76l-60.21 0.07 0.4 348.61c0.11 93.7 75.61 171.37 169.3 170.78 94.88-0.59 171.08-79.71 166.99-175.58-3.66-86.05-73.23-156.23-159.25-160.63zm-4.18 239.07c-41.39 2.62-75.8-30.16-75.85-70.99v-0.02c-0.04-31.22 20.01-59.53 50-68.22 49.11-14.22 93.76 23.01 92.41 70.25-1.04 36.41-30.21 66.69-66.56 68.98z"/>
<linearGradient id="SVGID_1_" x1="154.95" x2="1021.7" y1="356.51" y2="356.51" gradientTransform="matrix(1 -.0011471 .0011471 1 -3.7493 -4.4301)" gradientUnits="userSpaceOnUse">
	<stop stop-color="#3AA07A" offset=".1701"/>
	<stop stop-color="#399C8C" offset=".2782"/>
	<stop stop-color="#3593B7" offset=".4816"/>
	<stop stop-color="#513BA8" offset=".6877"/>
	<stop stop-color="#5F10A0" offset=".7858"/>
</linearGradient>
<path class="st3" d="m1008.3 286.88-63.94 64.1-60.87 60.99c-32.47 32.54-85.17 32.6-117.73 0.14l-60.99-60.85 61 60.86-122-121.72c-30.75-30.68-79.53-32.3-112.21-4.9-0.04 0.04-0.07 0.05-0.11 0.11-1.85 1.54-3.65 3.18-5.4 4.93l-60.61 60.75-0.25 0.27-64.26 64.39c-0.53 0.53-1.06 1.06-1.57 1.61l-0.02 0.02 66.35-66.02-0.26 0.26-60.61 60.74c-1.77 1.77-3.58 3.45-5.47 5l-0.02 0.02c-32.66 27.45-81.46 25.82-112.23-4.88l-125.39-125.1c-0.07-0.07-0.12-0.12-0.21-0.19"/>
<linearGradient id="SVGID_2_" x1="154.95" x2="1021.7" y1="356.51" y2="356.51" gradientTransform="matrix(1 -.0011471 .0011471 1 -3.7493 -4.4301)" gradientUnits="userSpaceOnUse">
	<stop stop-color="#3AA07A" offset=".1701"/>
	<stop stop-color="#399C8C" offset=".2782"/>
	<stop stop-color="#3593B7" offset=".4816"/>
	<stop stop-color="#513BA8" offset=".6877"/>
	<stop stop-color="#5F10A0" offset=".7858"/>
</linearGradient>
<path class="st4" d="m1008.5 414.93-64.09-63.94-61.01-60.87c-32.54-32.45-85.25-32.39-117.73 0.14l-60.85 61.01 60.86-61.01-60.85 61.01-60.87 60.99c-30.7 30.77-79.48 32.5-112.22 5.14l-0.02-0.02c-1.87-1.55-3.71-3.23-5.48-4.99l-60.75-60.61-0.25-0.25-64.4-64.26c-0.51-0.51-1.01-1.02-1.5-1.53l-0.11-0.11 66.52 65.89-0.26-0.26-60.75-60.61c-1.75-1.73-3.54-3.38-5.39-4.92-0.05-0.03-0.09-0.07-0.12-0.1-32.72-27.32-81.51-25.58-112.2 5.16l-60.85 61.01-64.25 64.4c-0.07 0.07-0.12 0.12-0.21 0.19"/>

	<path class="st5" d="m4.03 951.64c0-3.59 0.71-6.94 2.16-10.06 1.44-3.12 3.46-5.83 6.04-8.13s5.65-4.12 9.2-5.44 7.44-1.99 11.66-2c4.16 0 8.01 0.64 11.57 1.92 3.56 1.29 6.65 3.08 9.26 5.37 2.61 2.3 4.65 5.03 6.1 8.21s2.18 6.69 2.18 10.53-0.73 7.35-2.21 10.53-3.5 5.92-6.08 8.22-5.68 4.08-9.3 5.35c-3.62 1.26-7.54 1.9-11.76 1.9-4.16 0-8-0.62-11.53-1.88s-6.57-3.05-9.12-5.37c-2.55-2.33-4.56-5.11-6.01-8.35-1.43-3.23-2.15-6.84-2.16-10.8zm18.04 0.17c0 1.64 0.3 3.13 0.9 4.49 0.6 1.35 1.39 2.53 2.37 3.54s2.14 1.79 3.5 2.36c1.35 0.56 2.79 0.85 4.3 0.84 1.51 0 2.94-0.29 4.3-0.85 1.35-0.57 2.52-1.36 3.49-2.37 0.98-1.01 1.76-2.19 2.36-3.55 0.6-1.35 0.89-2.82 0.89-4.39 0-1.51-0.3-2.94-0.9-4.3-0.6-1.35-1.39-2.53-2.37-3.54s-2.14-1.79-3.5-2.36c-1.35-0.57-2.79-0.85-4.3-0.85s-2.94 0.29-4.3 0.86c-1.35 0.57-2.52 1.36-3.49 2.37-0.98 1.01-1.76 2.17-2.36 3.5-0.59 1.32-0.89 2.73-0.89 4.25z"/>
	<path class="st5" d="m91.55 1000.4-17.1 0.02-0.08-72.64 17.1-0.02 0.01 5.38c3.65-4.6 8.62-6.91 14.92-6.91 3.46 0 6.69 0.67 9.68 2.02s5.59 3.19 7.8 5.52 3.92 5.07 5.16 8.21c1.23 3.15 1.85 6.52 1.85 10.1 0 3.59-0.61 6.93-1.83 10.01-1.23 3.09-2.92 5.8-5.09 8.13s-4.73 4.16-7.69 5.49-6.17 1.99-9.63 1.99c-6.04 0.01-11.09-2.07-15.12-6.22l0.02 28.92zm21.49-48.29c0-1.51-0.27-2.94-0.81-4.3-0.54-1.35-1.31-2.53-2.32-3.54-1.01-1-2.19-1.81-3.55-2.4-1.35-0.6-2.82-0.89-4.39-0.89-1.51 0-2.93 0.29-4.25 0.85-1.32 0.57-2.47 1.36-3.44 2.37-0.98 1.01-1.76 2.19-2.36 3.55s-0.89 2.79-0.89 4.3 0.29 2.93 0.86 4.25 1.36 2.47 2.37 3.44c1.01 0.98 2.19 1.76 3.55 2.36 1.35 0.6 2.79 0.89 4.3 0.89s2.93-0.29 4.25-0.85c1.32-0.57 2.47-1.36 3.44-2.37 0.98-1.01 1.76-2.17 2.36-3.5 0.58-1.33 0.88-2.71 0.88-4.16z"/>
	<path class="st5" d="m158.38 954.77c0.01 7.37 3.47 11.05 10.4 11.04 3.71 0 6.52-1.52 8.4-4.54l16.53-0.02c-3.33 11.09-11.66 16.64-25.01 16.65-4.09 0-7.84-0.6-11.24-1.83-3.4-1.22-6.32-2.97-8.74-5.23-2.43-2.26-4.3-4.97-5.63-8.12s-1.99-6.67-2-10.58c0-4.03 0.62-7.67 1.88-10.91s3.05-6 5.38-8.27 5.14-4.02 8.45-5.25 7.04-1.85 11.19-1.86c4.09 0 7.78 0.6 11.05 1.83 3.27 1.22 6.05 3 8.32 5.33s4 5.18 5.2 8.54c1.2 3.37 1.8 7.16 1.81 11.38v1.79l-35.99 0.05zm20.01-9.94c-0.57-2.39-1.74-4.31-3.5-5.76s-3.91-2.17-6.42-2.17c-2.65 0-4.8 0.7-6.47 2.09s-2.72 3.34-3.16 5.86l19.55-0.02z"/>
	<path class="st5" d="m206.42 927.6 17.1-0.02 0.01 6.14c2.33-2.84 4.68-4.74 7.08-5.72 2.39-0.98 5.19-1.47 8.4-1.47 3.4 0 6.31 0.54 8.74 1.64s4.49 2.66 6.19 4.67c1.39 1.64 2.33 3.46 2.84 5.47s0.76 4.31 0.76 6.89l0.04 30.79-17.1 0.02-0.03-24.46c0-2.39-0.18-4.33-0.53-5.81s-0.96-2.66-1.85-3.54c-0.76-0.76-1.61-1.29-2.55-1.6s-1.95-0.47-3.02-0.47c-2.9 0-5.12 0.87-6.66 2.6-1.54 1.74-2.31 4.21-2.31 7.42l0.03 25.88-17.1 0.02-0.04-48.45z"/>
	<path class="st5" d="m360.2 927.43 0.05 45.15c0 2.71-0.15 5.13-0.46 7.27s-0.75 4.03-1.32 5.67c-0.75 2.08-1.93 4.02-3.54 5.81-1.6 1.8-3.54 3.36-5.8 4.68-2.26 1.33-4.83 2.37-7.69 3.13-2.87 0.76-5.97 1.14-9.3 1.14-3.78 0-7.24-0.46-10.39-1.41-3.15-0.94-5.91-2.25-8.27-3.91-2.36-1.67-4.3-3.62-5.82-5.85-1.51-2.23-2.53-4.67-3.03-7.32l19.27-0.02c1.2 3.21 3.91 4.81 8.13 4.81 3.59 0 6.34-1.02 8.26-3.03 1.92-2.02 2.87-4.82 2.87-8.41l-0.01-4.63c-1.26 1.2-2.47 2.19-3.63 2.98s-2.35 1.44-3.54 1.94c-1.2 0.5-2.45 0.87-3.78 1.09-1.32 0.22-2.77 0.33-4.35 0.34-3.46 0-6.64-0.59-9.54-1.78s-5.4-2.86-7.52-5c-2.11-2.14-3.75-4.7-4.92-7.69s-1.75-6.31-1.76-9.96c0-3.72 0.62-7.16 1.88-10.34s2.97-5.95 5.14-8.32c2.17-2.36 4.75-4.22 7.74-5.58s6.25-2.04 9.77-2.04c5.73-0.01 10.55 2.13 14.46 6.41l-0.01-5.1 17.11-0.03zm-38.33 24.03c0 1.57 0.29 3.04 0.86 4.39s1.34 2.53 2.32 3.54 2.14 1.79 3.5 2.36c1.35 0.56 2.82 0.85 4.39 0.85 1.51 0 2.94-0.29 4.3-0.86 1.35-0.57 2.52-1.36 3.49-2.37 0.98-1.01 1.76-2.19 2.36-3.55 0.6-1.35 0.89-2.79 0.89-4.3 0-1.57-0.3-3.02-0.9-4.34s-1.4-2.49-2.41-3.49c-1.01-1.01-2.19-1.79-3.54-2.36-1.36-0.57-2.76-0.85-4.2-0.85-1.51 0-2.93 0.3-4.25 0.9s-2.49 1.39-3.49 2.37c-1.01 0.98-1.81 2.13-2.4 3.45-0.62 1.33-0.92 2.75-0.92 4.26z"/>
	<path class="st5" d="m390.73 954.5c0.01 7.37 3.47 11.05 10.4 11.04 3.71 0 6.52-1.52 8.4-4.54l16.53-0.02c-3.33 11.09-11.66 16.64-25.01 16.65-4.09 0-7.84-0.6-11.24-1.83-3.4-1.22-6.32-2.97-8.74-5.23-2.43-2.26-4.3-4.97-5.63-8.12s-1.99-6.67-2-10.58c0-4.03 0.62-7.67 1.88-10.91s3.05-6 5.38-8.27 5.14-4.02 8.45-5.25 7.04-1.85 11.19-1.86c4.09 0 7.78 0.6 11.05 1.83 3.27 1.22 6.05 3 8.32 5.33s4 5.18 5.2 8.54c1.2 3.37 1.8 7.16 1.81 11.38v1.79l-35.99 0.05zm20.02-9.94c-0.57-2.39-1.74-4.31-3.5-5.76s-3.91-2.17-6.42-2.17c-2.65 0-4.8 0.7-6.47 2.09s-2.72 3.34-3.16 5.86l19.55-0.02z"/>
	<path class="st5" d="m438.78 927.34 17.1-0.02 0.01 6.14c2.33-2.84 4.68-4.74 7.08-5.72 2.39-0.98 5.19-1.47 8.4-1.47 3.4 0 6.31 0.54 8.74 1.64s4.49 2.66 6.19 4.67c1.39 1.64 2.33 3.46 2.84 5.47s0.76 4.31 0.76 6.89l0.04 30.79-17.1 0.02-0.03-24.46c0-2.39-0.18-4.33-0.53-5.81s-0.96-2.66-1.85-3.54c-0.76-0.76-1.61-1.29-2.55-1.6s-1.95-0.47-3.02-0.47c-2.9 0-5.12 0.87-6.66 2.6-1.54 1.74-2.31 4.21-2.31 7.42l0.03 25.88-17.1 0.02-0.04-48.45z"/>
	<path class="st5" d="m502 951.07c0-3.59 0.71-6.94 2.16-10.06 1.44-3.12 3.46-5.83 6.04-8.13s5.65-4.12 9.2-5.44c3.56-1.33 7.44-1.99 11.66-2 4.16 0 8.01 0.64 11.57 1.92 3.56 1.29 6.65 3.08 9.26 5.37 2.61 2.3 4.65 5.03 6.1 8.21s2.18 6.69 2.18 10.53-0.73 7.35-2.21 10.53-3.5 5.92-6.08 8.22-5.68 4.08-9.3 5.35c-3.62 1.26-7.54 1.9-11.76 1.9-4.16 0-8-0.62-11.53-1.88s-6.57-3.05-9.12-5.37c-2.55-2.33-4.56-5.11-6.01-8.35-1.43-3.23-2.16-6.84-2.16-10.8zm18.04 0.16c0 1.64 0.3 3.13 0.9 4.49 0.6 1.35 1.39 2.53 2.37 3.54s2.14 1.79 3.5 2.36c1.35 0.56 2.79 0.85 4.3 0.84 1.51 0 2.94-0.29 4.3-0.85 1.35-0.57 2.52-1.36 3.49-2.37 0.98-1.01 1.76-2.19 2.36-3.55 0.6-1.35 0.89-2.82 0.89-4.39 0-1.51-0.3-2.94-0.9-4.3-0.6-1.35-1.39-2.53-2.37-3.54s-2.14-1.79-3.5-2.36c-1.35-0.57-2.79-0.85-4.3-0.85s-2.94 0.29-4.3 0.86c-1.35 0.57-2.52 1.36-3.49 2.37-0.98 1.01-1.76 2.17-2.36 3.5s-0.89 2.74-0.89 4.25z"/>
	<path class="st5" d="m572.34 927.18 17.1-0.02 0.01 5.95c4.65-4.48 9.88-6.72 15.67-6.72 7.18-0.01 12.66 3.01 16.45 9.05 3.83-6.11 9.31-9.17 16.43-9.18 2.27 0 4.41 0.33 6.42 0.98 2.01 0.66 3.75 1.7 5.2 3.11 1.45 1.42 2.6 3.26 3.45 5.52 0.85 2.27 1.28 5.01 1.28 8.22l0.04 31.45-17.1 0.02-0.03-23.9c0-2.46-0.18-4.47-0.53-6.05-0.35-1.57-0.85-2.8-1.52-3.68-0.66-0.88-1.43-1.48-2.32-1.79-0.88-0.31-1.83-0.47-2.83-0.47-5.48 0.01-8.21 4.01-8.2 12l0.03 23.9-17.1 0.02-0.03-23.9c0-2.46-0.16-4.49-0.48-6.09-0.32-1.61-0.77-2.88-1.37-3.82s-1.37-1.59-2.32-1.93c-0.94-0.34-2.05-0.52-3.31-0.52-1.07 0-2.08 0.16-3.02 0.47-0.94 0.32-1.78 0.93-2.5 1.85-0.72 0.91-1.29 2.17-1.7 3.78s-0.61 3.7-0.61 6.28l0.03 23.9-17.1 0.02-0.04-48.45z"/>
	<path class="st5" d="m683.83 954.16c0.01 7.37 3.47 11.05 10.4 11.04 3.71 0 6.52-1.52 8.4-4.54l16.53-0.02c-3.33 11.09-11.66 16.64-25.01 16.65-4.09 0-7.84-0.6-11.24-1.83-3.4-1.22-6.32-2.97-8.74-5.23-2.43-2.26-4.3-4.97-5.63-8.12s-1.99-6.67-2-10.58c0-4.03 0.62-7.67 1.88-10.91s3.05-6 5.38-8.27 5.14-4.02 8.45-5.25 7.04-1.85 11.19-1.86c4.09 0 7.78 0.6 11.05 1.83 3.27 1.22 6.05 3 8.32 5.33s4 5.18 5.2 8.54c1.2 3.37 1.8 7.16 1.81 11.38v1.79l-35.99 0.05zm20.01-9.94c-0.57-2.39-1.74-4.31-3.5-5.76s-3.91-2.17-6.42-2.17c-2.65 0-4.8 0.7-6.47 2.09s-2.72 3.34-3.16 5.86l19.55-0.02z"/>
	<path class="st5" d="m783.41 897 0.04 34.76c4.02-4.22 9.06-6.34 15.11-6.35 3.59 0 6.88 0.67 9.87 2.02s5.54 3.17 7.66 5.47c2.11 2.3 3.77 5 4.97 8.12s1.8 6.44 1.81 9.96c0 3.59-0.61 6.96-1.83 10.11-1.23 3.15-2.94 5.89-5.14 8.22s-4.8 4.18-7.79 5.53c-2.99 1.36-6.22 2.04-9.68 2.04-6.3 0.01-11.28-2.29-14.93-6.88l0.01 5.38-17.1 0.02-0.09-78.4h17.09zm21.6 54.29c0-1.51-0.29-2.94-0.86-4.3-0.57-1.35-1.36-2.53-2.37-3.54-1.01-1-2.17-1.81-3.5-2.4-1.32-0.6-2.77-0.89-4.35-0.89-1.51 0-2.93 0.29-4.25 0.85-1.32 0.57-2.47 1.36-3.44 2.37-0.98 1.01-1.76 2.19-2.36 3.55s-0.89 2.79-0.89 4.3 0.29 2.93 0.86 4.25 1.36 2.47 2.37 3.44c1.01 0.98 2.19 1.76 3.55 2.36 1.35 0.6 2.79 0.89 4.3 0.89s2.93-0.29 4.25-0.85c1.32-0.57 2.47-1.36 3.44-2.37 0.98-1.01 1.76-2.17 2.36-3.5s0.89-2.72 0.89-4.16z"/>
	<path class="st5" d="m834.93 926.88 17.1-0.02 0.01 7.93c1.82-2.9 4.06-5.12 6.7-6.67s5.73-2.32 9.25-2.32h1.46c0.53 0 1.15 0.06 1.84 0.19l0.02 16.34c-2.27-1.13-4.72-1.69-7.37-1.69-3.97 0-6.94 1.19-8.92 3.55s-2.97 5.81-2.96 10.35l0.02 20.78-17.1 0.02-0.05-48.46z"/>
	<path class="st5" d="m879.82 950.63c0-3.59 0.71-6.94 2.16-10.06 1.44-3.12 3.46-5.83 6.04-8.13s5.65-4.12 9.2-5.44 7.44-1.99 11.66-2c4.16 0 8.01 0.64 11.57 1.92 3.56 1.29 6.65 3.08 9.26 5.37 2.61 2.3 4.65 5.03 6.1 8.21s2.18 6.69 2.18 10.53-0.73 7.35-2.21 10.53-3.5 5.92-6.08 8.22-5.68 4.08-9.3 5.35c-3.62 1.26-7.54 1.9-11.76 1.9-4.16 0-8-0.62-11.53-1.88s-6.57-3.05-9.12-5.37c-2.55-2.33-4.56-5.11-6.01-8.35-1.43-3.23-2.15-6.83-2.16-10.8zm18.04 0.17c0 1.64 0.3 3.13 0.9 4.49 0.6 1.35 1.39 2.53 2.37 3.54s2.14 1.79 3.5 2.36c1.35 0.56 2.79 0.85 4.3 0.84 1.51 0 2.94-0.29 4.3-0.85 1.35-0.57 2.52-1.36 3.49-2.37s1.76-2.19 2.36-3.55c0.6-1.35 0.89-2.82 0.89-4.39 0-1.51-0.3-2.94-0.9-4.3-0.6-1.35-1.39-2.53-2.37-3.54s-2.14-1.79-3.5-2.36c-1.35-0.57-2.79-0.85-4.3-0.85s-2.94 0.29-4.3 0.86c-1.35 0.57-2.52 1.36-3.49 2.37-0.98 1.01-1.76 2.17-2.36 3.5-0.59 1.32-0.89 2.74-0.89 4.25z"/>
	<path class="st5" d="m960.93 926.74 11.65 25.49 12.06-25.52 10.77-0.01 12.12 26.24 12.15-26.27 18.99-0.02-25.26 48.48-11.43 0.01-12.12-26.53-11.49 26.55-11.62 0.01-24.9-48.43h19.08z"/>
	<path class="st5" d="m1076.8 939.07c-3.15-1.63-6.24-2.45-9.26-2.45-1.57 0-2.85 0.32-3.82 0.95-0.98 0.63-1.46 1.48-1.46 2.55 0 0.57 0.08 1.02 0.24 1.37s0.5 0.68 1.04 0.99c0.53 0.32 1.32 0.6 2.36 0.85s2.41 0.56 4.11 0.94c4.72 0.94 8.25 2.62 10.59 5.04 2.33 2.42 3.5 5.52 3.51 9.3 0 2.83-0.56 5.38-1.69 7.65s-2.7 4.17-4.72 5.72c-2.01 1.55-4.44 2.74-7.27 3.6-2.83 0.85-5.95 1.28-9.35 1.29-6.55 0.01-13.01-1.84-19.37-5.55l6.22-12.1c4.79 3.27 9.32 4.9 13.61 4.9 1.57 0 2.86-0.35 3.87-1.04 1-0.69 1.51-1.58 1.51-2.65 0-0.63-0.08-1.15-0.24-1.56s-0.49-0.79-0.99-1.13c-0.51-0.34-1.24-0.66-2.22-0.94s-2.25-0.58-3.83-0.89c-5.29-1.06-8.99-2.65-11.1-4.76s-3.17-5.02-3.17-8.73c0-2.71 0.5-5.15 1.5-7.32s2.45-4.02 4.34-5.53 4.17-2.68 6.84-3.5 5.65-1.23 8.92-1.24c5.35-0.01 10.55 1.03 15.59 3.1l-5.76 11.14z"/>
	<path class="st5" d="m1110.6 953.67c0.01 7.37 3.47 11.05 10.4 11.04 3.71 0 6.52-1.52 8.4-4.54l16.53-0.02c-3.33 11.09-11.66 16.64-25.01 16.65-4.09 0-7.84-0.6-11.24-1.83-3.4-1.22-6.32-2.97-8.74-5.23-2.43-2.26-4.3-4.97-5.63-8.12s-1.99-6.67-2-10.58c0-4.03 0.62-7.67 1.88-10.91s3.05-6 5.38-8.27 5.14-4.02 8.45-5.25 7.04-1.85 11.19-1.86c4.09 0 7.78 0.6 11.05 1.83 3.27 1.22 6.05 3 8.32 5.33s4 5.18 5.2 8.54c1.2 3.37 1.8 7.16 1.81 11.38v1.79l-35.99 0.05zm20.02-9.94c-0.57-2.39-1.74-4.31-3.5-5.76s-3.91-2.17-6.42-2.17c-2.65 0-4.8 0.7-6.47 2.09s-2.72 3.34-3.16 5.86l19.55-0.02z"/>
	<path class="st5" d="m1158.6 926.51 17.1-0.02 0.01 7.93c1.82-2.9 4.06-5.12 6.7-6.67s5.73-2.32 9.25-2.32h1.46c0.53 0 1.15 0.06 1.84 0.19l0.02 16.34c-2.27-1.13-4.72-1.69-7.37-1.69-3.97 0-6.94 1.19-8.92 3.55s-2.97 5.81-2.96 10.35l0.02 20.78-17.1 0.02-0.05-48.46z"/>

</svg>
