<?xml version="1.0" encoding="UTF-8"?>
<svg enable-background="new 0 0 512 512" version="1.1" viewBox="0 0 512 512" xmlns="http://www.w3.org/2000/svg">
 <path d="m486.4 236.61c-2.296-1.157-25.419-25.964-59.041-25.952-25.338 9e-3 -41.045 13.251-59.806 21.352-22.26 11.133-52.943 11.558-78.254-1.428l-3.395 27.156c13.343 22.555 31.141 37.951 54.187 49.853 13.812-24 40.902-36.587 69.547-36.587 21.006 0 40.752 8.174 55.605 23.027l11.367 11.367c5.859 5.859 5.859 15.352 0 21.211s-15.352 5.859-21.211 0l-11.367-11.367c-9.184-9.183-21.401-14.237-34.394-14.237-16.122 0-30.659 7.826-39.595 20.407 0.456 0.119 0.861 0.366 1.318 0.482 29.239 7.295 49.644 33.442 49.644 63.574 0 19.599 15.938 35.537 35.537 35.537h9.463c8.291 0 15 6.709 15 15s-6.709 15-15 15h-9.463c-36.138 0-65.537-29.399-65.537-65.537 0-16.333-11.074-30.513-26.924-34.482-32.397-8.104-61.371-21.094-83.56-45.423l-7.1968 51.275c33.296 7.647 57.681 43.586 57.681 79.167 0 8.276 6.724 15 15 15 8.291 0 15 6.709 15 15s-6.709 15-15 15c-24.814 0-45-20.186-45-45 0-22.883-17.228-41.622-39.359-44.431l-3.825 3.825c-10.693 10.694-16.816 25.489-16.816 40.606s6.123 30.912 16.816 41.605l8.789 8.789c5.859 5.859 5.859 15.352 0 21.211s-15.352 5.859-21.211 0l-8.789-8.789c-16.274-16.274-25.605-39.803-25.605-62.816s7.1127-48.335 22.952-65.032l5.6921-6.0006-1.431-10.33c-24.294 23.346-55.99 36.363-89.791 36.363-15.117 0-27.422 12.305-27.422 27.422 0 7.222 2.93 14.297 8.027 19.395l17.578 17.578c5.859 5.859 5.859 15.352 0 21.211s-15.352 5.859-21.211 0l-17.578-17.578c-10.839-10.841-16.816-25.269-16.816-40.606 0-9.981 2.789-19.235 7.288-27.422h-22.288c-8.276 0-15 6.724-15 15 0 8.291-6.709 15-15 15s-15-6.709-15-15c0-24.814 20.186-45 45-45h72.422c26.675 0 55.474-12.715 70.605-34.666l13.293-19.283-11.044-87.925c-19.906 14.068-36.807 19.555-61.615 21.274l-5.3507 0.85797-0.59333 14.774c-0.92411 23.011-22.903 44.968-47.717 44.968-8.291 0-15-6.709-15-15s6.709-15 15-15c8.276 0 15-6.724 15-15v-15h-7.925c-17.139 0-32.563 9.536-40.239 24.873-10.825 21.665-33.607 35.127-57.836 35.127-8.291 0-15-6.709-15-15s6.709-15 15-15c12.788 0 25.287-7.104 31-18.545 8.093-16.166 21.645-27.825 37.511-34.68-15.126-22.59-40.783-36.775-68.511-36.775-8.291 0-15-6.709-15-15s6.709-15 15-15c41.96 0 84.72 23.652 104.17 60.668l33.766-0.6675c37.732-0.74588 63.949-40.769 69.253-44.315l6.0343-122.88c-0.60488-26.906-28.993-43.804 0.87215-43.804h66.604c29.484 0 7.1555 22.472 1.2302 60.889l-3.9199 114.7c10.845 9.142 20.623 37.222 38.481 33.483 7.813-50.186 52.504-88.067 104.51-88.067 8.291 0 15 6.709 15 15s-6.709 15-15 15c-31.54 0-58.705 20.101-69.67 48.067 7.833-3.152 28.488-18.067 61.452-18.067 49.828 0 76.824 32.355 79.823 34.395 5.859 5.859 5.859 15.352 0 21.211s-15.351 5.859-21.21-1e-3z"/>
</svg>
