<?xml version="1.0" encoding="UTF-8"?>
<svg width="145.23" height="164.48" version="1.1" viewBox="0 0 175.1 198.16" xmlns="http://www.w3.org/2000/svg" xmlns:cc="http://creativecommons.org/ns#" xmlns:dc="http://purl.org/dc/elements/1.1/" xmlns:rdf="http://www.w3.org/1999/02/22-rdf-syntax-ns#">
 <metadata>
  <rdf:RDF>
   <cc:Work rdf:about="">
    <dc:format>image/svg+xml</dc:format>
    <dc:type rdf:resource="http://purl.org/dc/dcmitype/StillImage"/>
    <dc:title/>
   </cc:Work>
  </rdf:RDF>
 </metadata>
 <g transform="translate(-.89952 -.96781)" fill="#7289da">
  <path d="m106.8 84.1c-5.7 0-10.2 4.9-10.2 11s4.6 11 10.2 11c5.7 0 10.2-4.9 10.2-11s-4.6-11-10.2-11zm-36.5 0c-5.7 0-10.2 4.9-10.2 11s4.6 11 10.2 11c5.7 0 10.2-4.9 10.2-11 0.1-6.1-4.5-11-10.2-11z"/>
  <path transform="matrix(1.2056 0 0 1.2056 0 -.067993)" d="m17.75 0.80273c-9.3726 0-17.004 7.6313-17.004 17.004v111.14c0 9.3726 7.6313 17.004 17.004 17.004h94.059l-4.3965-15.18 10.617 9.7871 10.035 9.207 17.916 15.51v-147.47c-0.08294-9.3726-7.7133-17.004-17.086-17.004zm42.799 38.402 0.83008 0.99609c-14.93 4.2301-21.732 10.783-21.732 10.783s1.8256-0.99517 4.8945-2.3223c8.875-3.8983 15.925-4.8948 18.828-5.2266 0.49766-0.08294 0.91249-0.16602 1.4102-0.16602 5.0596-0.66355 10.782-0.82956 16.754-0.16602 7.8796 0.91238 16.341 3.236 24.967 7.8809 0 0-6.5539-6.221-20.654-10.451l1.1621-1.3281s11.364-0.24801 23.225 8.627c0 0 11.943 21.482 11.943 47.941 0-0.08294-6.9663 11.861-25.297 12.441 0 0-2.9863-3.5658-5.4746-6.6348 10.866-3.0689 15.012-9.7871 15.012-9.7871-3.4007 2.2395-6.6341 3.8143-9.5371 4.8926-4.1472 1.7418-8.129 2.8199-12.027 3.5664-7.9626 1.493-15.262 1.0792-21.482-0.082-4.7278-0.91238-8.7927-2.1564-12.193-3.5664-1.9077-0.74649-3.9811-1.6591-6.0547-2.8203-0.24883-0.16589-0.49726-0.25013-0.74609-0.41602-0.16589-0.08294-0.24909-0.16602-0.33203-0.16602-1.493-0.82944-2.3223-1.4082-2.3223-1.4082s3.9818 6.5513 14.516 9.7031c-2.4883 3.1519-5.5586 6.8008-5.5586 6.8008-18.331-0.58061-25.297-12.523-25.297-12.523 0-26.459 11.943-47.941 11.943-47.941 11.944-8.875 23.225-8.627 23.225-8.627z" stroke-width=".82944"/>
 </g>
</svg>
