<?xml version="1.0" encoding="UTF-8"?>
<svg id="logo_art" width="337.59" height="311.01" data-name="logo art" version="1.1" viewBox="0 0 337.59 311.01" xmlns="http://www.w3.org/2000/svg" xmlns:cc="http://creativecommons.org/ns#" xmlns:dc="http://purl.org/dc/elements/1.1/" xmlns:rdf="http://www.w3.org/1999/02/22-rdf-syntax-ns#">
 <metadata>
  <rdf:RDF>
   <cc:Work rdf:about="">
    <dc:format>image/svg+xml</dc:format>
    <dc:type rdf:resource="http://purl.org/dc/dcmitype/StillImage"/>
    <dc:title>gitlab-logo-gray-rgb</dc:title>
   </cc:Work>
  </rdf:RDF>
 </metadata>
 <defs>
  <style>.cls-1{fill:#8c929d;}.cls-2{fill:#fc6d26;}.cls-3{fill:#e24329;}.cls-4{fill:#fca326;}</style>
 </defs>
 <title>gitlab-logo-gray-rgb</title>
 <g transform="translate(-124.04 -123.99)">
  <path class="cls-2" d="m461 301.81-18.91-58.12-37.42-115.28a6.47 6.47 0 0 0-12.27 0l-37.4 115.21h-124.34l-37.42-115.21a6.47 6.47 0 0 0-12.27 0l-37.35 115.21-18.92 58.19a12.89 12.89 0 0 0 4.66 14.39l163.46 118.8 163.46-118.8a12.9 12.9 0 0 0 4.72-14.39"/>
 </g>
 <g transform="translate(-124.04 -123.99)">
  <path class="cls-3" d="m292.86 434.89 62.14-191.28h-124.3z"/>
 </g>
 <g transform="translate(-124.04 -123.99)">
  <path class="cls-2" d="m292.82 434.9-62.16-191.29h-87z"/>
 </g>
 <g transform="translate(-124.04 -123.99)">
  <path class="cls-4" d="m143.59 243.68-18.92 58.12a12.89 12.89 0 0 0 4.66 14.39l163.46 118.81z"/>
 </g>
 <g transform="translate(-124.04 -123.99)">
  <path class="cls-3" d="m143.61 243.68h87.11l-37.49-115.21a6.47 6.47 0 0 0-12.27 0z"/>
 </g>
 <g transform="translate(-124.04 -123.99)">
  <path class="cls-2" d="m292.86 434.9 62.14-191.29h87.1z"/>
 </g>
 <g transform="translate(-124.04 -123.99)">
  <path class="cls-4" d="m442.07 243.68 18.93 58.12a12.89 12.89 0 0 1-4.66 14.39l-163.47 118.7z"/>
 </g>
 <g transform="translate(-124.04 -123.99)">
  <path class="cls-3" d="m442.12 243.68h-87.12l37.42-115.21a6.47 6.47 0 0 1 12.27 0l37.42 115.21z"/>
 </g>
</svg>
