<?xml version="1.0" encoding="UTF-8"?>
<svg width="110px" height="110px" version="1.0" viewBox="0 0 1100 1100" xmlns="http://www.w3.org/2000/svg" xmlns:cc="http://creativecommons.org/ns#" xmlns:dc="http://purl.org/dc/elements/1.1/" xmlns:rdf="http://www.w3.org/1999/02/22-rdf-syntax-ns#">
 <metadata>
  <rdf:RDF>
   <cc:Work rdf:about="">
    <dc:format>image/svg+xml</dc:format>
    <dc:type rdf:resource="http://purl.org/dc/dcmitype/StillImage"/>
    <dc:title/>
   </cc:Work>
  </rdf:RDF>
 </metadata>
 <circle cx="550" cy="550" r="522.42"/>
 <g fill="#dca620">
  <path transform="scale(10)" d="m55 0c-30.376 0-55 24.624-55 55s24.624 55 55 55 55-24.624 55-55-24.624-55-55-55zm-3.043 5.2324c0.29579-0.011099 0.59668-0.010617 0.9043 0.00195 1.4766 0.060351 3.0945 0.39219 4.8945 0.99219 3.6 1.3 4.1004 2.9004 0.90039 2.9004-2.2 0.1-2.2004 0.1-0.40039 1.5 1.1 0.8 1.8 1.7004 1.5 1.9004-0.2 0.2-2.4004 0.7-4.9004 1-3.2 0.5-5.3992 0.2-7.6992-1-4-2-4.1012-2.7008-0.70117-5.3008 1.6406-1.2578 3.4314-1.9164 5.502-1.9941zm-12.379 3.0898c1.7156-0.014062 1.6031 0.8293-0.42188 2.4043-1.7 1.2-1.6 1.3004 0.5 1.4004 3.2 0 2.6992 1.5-1.3008 4-4 2.4-9.4004 3.4992-11.4 2.1992-1.1-0.8-0.99961-1.5 0.40039-4 2-3.3 4.4004-4.6992 9.9004-5.6992 0.975-0.2 1.7504-0.3 2.3223-0.30469zm29.479 0.1582c3.0939-0.071094 6.5613 1.734 9.7988 5.1465l2.5 2.6992-2.9004-0.79883c-2.6-0.6-2.6992-0.5-1.6992 1.5 1 1.8 0.90039 2.0996-0.59961 2.0996-3-0.1-9.7016-3.6004-11.102-5.9004-1.6-2.7-0.99883-3.7996 2.7012-4.5996 0.425-0.0875 0.85879-0.13633 1.3008-0.14648zm14.879 9.4746c3.4641-0.02812 8.9953 3.1219 11.32 7.1719l1.7988 3.1992-2.6992-1.7988-2.8008-1.8008 0.70117 2.7012c0.8 3.2 0.29922 3.2988-4.8008 0.29883-4-2.3-7.1996-6.8996-6.0996-8.5996 0.5-0.8 1.4254-1.1625 2.5801-1.1719zm-47.98 5.1719c6.6 0 10.1 2.2 12 7.5 1.5 4.2 2.2996 4.3 7.0996 1 6.2-4.2 8.0008-3.0992 2.8008 1.8008-2.5 2.3-5.4008 4.6992-6.3008 5.1992-1.2 0.7-1.9992 3.3-2.6992 8.5-1.8 12.7-7.1992 22-15.199 26.1-4.1 2.1-12.501 2.5008-16.801 0.80078-9.2-3.7-11.1-15.9-5.0996-32 2.6-7 9.0996-14.6 14.6-17 2.3-1.1 6.2996-1.9004 9.5996-1.9004zm61.613 9.9688c1.7393-0.0049 2.2617 0.58203 1.8867 1.832-1.9 6.7-1.8004 7.9984 0.59961 8.3984 2.3 0.4 2.3016 0.50156-0.39844 1.6016-2.1 0.9-2.8012 2.0984-3.7012 6.3984-0.6 2.9-1.6988 7.7012-2.2988 10.701-1 4.7-1 5.4996 0.5 6.5996 2.2 1.6 2.0984 2.8008-0.10156 4.8008-3.1 2.8-10.199 1.4992-10.199-1.8008 0-0.8-0.4-1.5-1-1.5-0.5 0-1 0.4-1 1 0 1.5-5.6004 4-8.9004 4-1.9 0-3.5988-0.80039-4.7988-2.4004l-1.9004-2.2988-2.8008 2.2988c-4 3.5-9.6996 3.3012-12.6-0.29883-1.9-2.4-2.1008-3.7008-1.8008-9.3008 0.6-7.5 3.3008-13.501 7.8008-17.301 2.8-2.4 3.7-2.5996 13-2.5996 11.6 0 10.9-0.89961 8 11.9-2.6 11.6-2.6004 14.201 0.09961 13.801 3.5-0.5 5.7008-4.6 7.8008-14 1.4-6.4 1.5992-8.9008 0.69922-9.8008-0.8-0.8-0.70039-1.3996 0.59961-2.0996 0.9-0.5 1.9008-2.7008 2.3008-4.8008 0.5-3.3 1.0992-4 3.6992-4.5 1.9875-0.4125 3.4701-0.62793 4.5137-0.63086zm-55.609 42.176c1.0844-0.03281 2.0715 0.08047 2.8965 0.35547 3.1 1 2.5008 2.2004-3.1992 5.9004-5.6 3.7-8.8016 4.7004-12.602 3.9004-3.3-0.7-2.3992-3.2004 2.3008-6.4004 3.225-2.25 7.3504-3.6574 10.604-3.7559zm-28.104 2.5547 2.3008 2.1016c1.2 1.1 4.4 2.9992 7 4.1992s4.6992 2.5 4.6992 3c0 1.5-0.89922 1.2004-7.6992-2.0996-4.8-2.3-6.3008-3.4996-6.3008-5.0996zm42.6 2.3008c2.4 0 2.5008 0.19922 1.3008 1.6992-0.8 0.9-3.2008 2.9-5.3008 4.5-3.7 2.7-10.6 4-10.6 2 0-2.8 9.5996-8.1992 14.6-8.1992zm23.1 1c1.4 0.1 1.2008 0.6-1.1992 2.5-1.6 1.4-4.5004 3.1996-6.4004 4.0996-1.106 0.53088-2.3152 1.1971-2.9636 1.3281-0.6484 0.13094-1.823 0.42136-1.4014-0.5551 0.21081-0.48823 2.1328-2.6063 4.6216-4.3274 2.4888-1.7211 5.5443-3.0452 7.3429-3.0452zm12.637 0.26172c1.5215 0.10251 0.06406 2.057-3.8359 4.7383-5.3 3.7-12.5 4.8-12.5 2 0-0.7 10.101-5.2 14.801-6.5 0.675-0.1875 1.184-0.26194 1.5352-0.23828zm-24.535 0.73828c2.3 0 1.2 1.5008-3 4.3008-4.2 2.7-10.601 3.7996-9.2012 1.5996 0.7-1.3 10.301-5.9004 12.201-5.9004zm-35.551 6.0996c1.3 0 2.9496 0.40117 4.3496 1.2012 5.6 3.2 12.201 10.6 10.701 12-0.8 0.9-0.9 0.89883-6-0.70117-2.3-0.8-5-2.1996-6-3.0996-2.6-2.6-5.3008-6.7992-5.3008-8.1992 0-0.8 0.95-1.2012 2.25-1.2012zm40.85 2.9004c2.2076 0.58561 4.4996 2.6996 3.5996 3.5996-0.3 0.4-2.4984 0.8-4.8984 1-7.3 0.7-11.896-5.2248-6.5-5.4004s5.5913 0.21517 7.7988 0.80078zm-22.121 0.32812c4.6001 0.27283 14.021 4.6465 14.021 7.2715 0 1.6-2.9 2.2004-6.5 1.4004-6.1-1.3-11.799-6.0992-9.6992-8.1992 0.275-0.275 0.73281-0.425 1.3262-0.4707 0.2596-0.01999 0.54489-0.02009 0.85156-2e-3z"/>
  <path d="m248.55 642.27c-44-83 48-351 121-351 27 0 32 18 9 30-42 23-33 90 12 90 18 0 20 4 13 47-10 66-41 146-70 177s-70 34-85 7z"/>
  <path d="m588.55 671.27c-25-46 29-190 74-198 33-7 37 12 21 84-22 95-24 102-41 119-21 21-41 19-54-5z"/>
 </g>
</svg>
